<svg width="104" height="104" viewBox="0 0 104 104" fill="none" xmlns="http://www.w3.org/2000/svg">
<g clip-path="url(#clip0_463_3924)">
<path d="M7 67.4932H24.6934V69.991H7V67.4932Z" fill="white"/>
<path d="M7 62.7021H24.6934V65.2087H7V62.7021Z" fill="white"/>
<path d="M12.0469 57.9199H19.6362V60.4266H12.0469V57.9199Z" fill="white"/>
<path d="M12.0469 53.1377H19.6362V55.6444H12.0469V53.1377Z" fill="white"/>
<path d="M12.0469 48.3555H19.6362V50.8621H12.0469V48.3555Z" fill="white"/>
<path d="M12.0469 43.5645H19.6362V46.0711H12.0469V43.5645Z" fill="white"/>
<path d="M24.6934 38.7822H7V41.2889H24.6934V38.7822Z" fill="white"/>
<path d="M24.6934 34H7V36.5067H24.6934V34Z" fill="white"/>
<path d="M27.2168 65.2088H54.4284C54.8881 64.4355 55.2306 63.591 55.438 62.7021H27.2168V65.2088Z" fill="white"/>
<path d="M52.3104 53.1377H32.2734V55.6444H54.4286C53.8516 54.6843 53.1396 53.8399 52.3104 53.1377Z" fill="white"/>
<path d="M32.2734 48.3555V50.8621H52.3104C53.1577 50.1599 53.8696 49.3154 54.4286 48.3555H32.2734Z" fill="white"/>
<path d="M54.4285 38.7822H27.2168V41.2889H55.438C55.2037 40.4 54.8611 39.5556 54.4285 38.7822Z" fill="white"/>
<path d="M46.064 34H27.2168V36.5067H52.5627C50.8682 34.96 48.5698 34 46.064 34Z" fill="white"/>
<path d="M39.8537 43.5645H32.2734V46.0711H39.8537V43.5645Z" fill="white"/>
<path d="M47.4434 46.0711H55.3752C55.6005 45.2712 55.7177 44.4267 55.7177 43.5645H47.4434V46.0711Z" fill="white"/>
<path d="M32.2734 57.9199H39.8537V60.4266H32.2734V57.9199Z" fill="white"/>
<path d="M47.4434 57.9199V60.4266H55.7177C55.7177 59.5644 55.6005 58.72 55.3752 57.9199H47.4434Z" fill="white"/>
<path d="M27.2168 69.9732L46.064 69.9998C48.5878 69.9998 50.8682 69.0399 52.5717 67.4932H27.2168V69.9732Z" fill="white"/>
<path d="M57.5566 67.4932H70.1934V69.991H57.5566V67.4932Z" fill="white"/>
<path d="M57.5566 62.7021H70.1934V65.2087H57.5566V62.7021Z" fill="white"/>
<path d="M62.6035 57.9199H70.1928V60.4266H62.6035V57.9199Z" fill="white"/>
<path d="M62.6035 53.1377H70.1928V55.6444H62.6035V53.1377Z" fill="white"/>
<path d="M73.7088 38.7822H57.5566V41.2889H74.583L73.7088 38.7822Z" fill="white"/>
<path d="M72.0322 34H57.5566V36.5067H72.9065L72.0322 34Z" fill="white"/>
<path d="M85.3535 67.4932H97.9994V69.991H85.3535V67.4932Z" fill="white"/>
<path d="M85.3535 62.7021H97.9994V65.2087H85.3535V62.7021Z" fill="white"/>
<path d="M85.3535 57.9199H92.9428V60.4266H85.3535V57.9199Z" fill="white"/>
<path d="M85.3535 53.1377H92.9428V55.6444H85.3535V53.1377Z" fill="white"/>
<path d="M85.3535 50.8621H92.9428V48.3555H85.3535H78.4853L77.7732 50.3822L77.0611 48.3555H70.1928H62.6035V50.8621H70.1928V48.5599L70.9951 50.8621H84.5513L85.3535 48.5599V50.8621Z" fill="white"/>
<path d="M92.9425 43.5645H80.1614L79.2871 46.0711H92.9425V43.5645Z" fill="white"/>
<path d="M83.5247 34L82.6504 36.5067H98.0004V34H83.5247Z" fill="white"/>
<path d="M77.7747 69.9732L78.649 67.4932H76.9004L77.7747 69.9732Z" fill="white"/>
<path d="M76.0974 65.2087H79.4504L80.3518 62.7021H75.2051L76.0974 65.2087Z" fill="white"/>
<path d="M74.3943 60.4266H81.1544L82.0468 57.9199H73.502L74.3943 60.4266Z" fill="white"/>
<path d="M72.6985 55.6444H82.8567L83.722 53.1377H71.8242L72.6985 55.6444Z" fill="white"/>
<path d="M62.6035 46.0711H76.2589L75.3846 43.5645H62.6035V46.0711Z" fill="white"/>
<path d="M80.9727 41.2889H97.9991V38.7822H81.838L80.9727 41.2889Z" fill="white"/>
</g>
<defs>
<clipPath id="clip0_463_3924">
<rect width="91" height="36" fill="white" transform="translate(7 34)"/>
</clipPath>
</defs>
</svg>
