<svg width="104" height="104" viewBox="0 0 104 104" fill="none" xmlns="http://www.w3.org/2000/svg">
<g clip-path="url(#clip0_463_3894)">
<path d="M44.847 51.2225H46.319C46.9817 51.2225 47.5798 50.8381 47.5726 50.1103C47.5726 49.4646 47.0396 49.0033 46.3579 49.0135H44.8459L44.847 51.2225ZM42.2792 47.0659H47.1159C48.4296 47.0659 50.2593 47.6399 50.2593 49.6901C50.2593 51.0022 49.6647 51.7402 48.5331 52.0785C48.5864 52.0785 49.1789 52.3347 49.4239 53.0779C49.4341 53.0779 50.8077 56.927 50.8231 56.9373H47.9713L46.9565 53.9697C46.8007 53.5136 46.4619 53.2112 45.9812 53.2112H44.9064V56.9373H42.2792V47.0659ZM86.6951 46.825C89.4833 46.825 91.6154 48.46 91.6154 52.0221C91.6154 55.4253 89.473 57.1782 86.6951 57.1782C83.9274 57.1782 81.8004 55.4663 81.8004 52.0221C81.8004 48.46 83.9121 46.825 86.6951 46.825ZM84.5476 52.0221C84.5476 53.5238 85.1934 55.2305 86.6951 55.2254C88.202 55.2254 88.8324 53.5238 88.8477 52.0221C88.8477 50.6588 88.202 48.8188 86.6951 48.8188C85.1934 48.8188 84.5476 50.5152 84.5476 52.0221ZM98.796 56.9373L95.3723 50.4486V56.9373H92.8865V47.0659H96.2897L99.534 53.4315V47.0659H101.999V56.9373H98.796ZM80.5294 47.2299L80.35 49.2852C78.9969 48.542 76.4291 48.5215 76.4291 49.6901C76.4291 51.4224 81.006 50.1719 81.006 53.8826C81.006 57.5267 76.6444 57.5677 73.8203 56.722L74.0218 54.5489C75.7936 55.374 78.2999 55.5534 78.2999 54.1235C78.2999 52.55 73.7024 53.4367 73.7024 49.9105C73.7024 47.0147 77.285 46.2407 80.5294 47.2299ZM72.4293 47.2299L72.2484 49.2852C70.8953 48.542 68.3275 48.5215 68.3275 49.6901C68.3275 51.4224 72.906 50.1719 72.906 53.8826C72.906 57.5267 68.5484 57.5677 65.7213 56.722L65.9212 54.5489C67.6925 55.374 70.2008 55.5534 70.2008 54.1235C70.2008 52.55 65.6034 53.4367 65.6034 49.9105C65.6034 47.0147 69.185 46.2407 72.4293 47.2299ZM64.5281 47.3837L64.3477 49.4953C62.1797 48.2396 58.856 48.6394 58.797 51.9298C58.7366 55.2203 62.2197 55.6969 64.4282 54.5796L64.5666 56.7374C60.6678 57.9521 56.0094 56.7374 56.0299 51.9298C56.0504 47.2402 60.7457 45.9435 64.5281 47.3837ZM54.7368 56.9373H52.0531V47.0659H54.7368V56.9373ZM40.1296 53.0266H35.4502V54.8666H40.409V56.9321H32.7871V47.0659H40.3316V49.116H35.4507V50.8996H40.1301L40.1296 53.0266Z" fill="white"/>
<path d="M6.00494 66.7987C4.45671 67.355 2.74977 66.5571 2.18359 65.0125C1.6174 63.4678 2.40435 61.7558 3.94535 61.1798L20.4884 55.1149C22.0379 54.5463 23.7571 55.3426 24.3264 56.8943C24.8961 58.4459 24.0991 60.1654 22.5469 60.7334L6.00494 66.7987ZM6.00494 57.8448C4.45671 58.4011 2.74977 57.6032 2.18359 56.0586C1.6174 54.5139 2.40435 52.8019 3.94535 52.2259L20.4884 46.1613C22.0379 45.592 23.7571 46.389 24.3264 47.9408C24.8958 49.492 24.0988 51.211 22.5469 51.7787L6.00494 57.8448ZM6.00494 48.8909C4.46241 49.4273 2.77464 48.6279 2.21252 47.0945C1.6504 45.5612 2.42157 43.8603 3.94535 43.2727L20.4884 37.2078C22.0379 36.6385 23.7571 37.4355 24.3264 38.9873C24.8958 40.5385 24.0988 42.2575 22.5469 42.8252L6.00494 48.8909Z" fill="white"/>
</g>
<defs>
<clipPath id="clip0_463_3894">
<rect width="104" height="104" fill="white"/>
</clipPath>
</defs>
</svg>
