<svg width="104" height="104" viewBox="0 0 104 104" fill="none" xmlns="http://www.w3.org/2000/svg">
<path d="M55.3239 53.0494C55.4757 52.6566 55.5003 52.1927 55.6416 51.7542C55.7134 51.5316 55.8023 51.3057 55.8474 51.0799C55.9407 50.6125 56.1403 50.1742 56.1754 49.6881C56.1967 49.395 56.3017 49.0977 56.3838 48.8131C56.4934 48.4332 56.5337 48.0397 56.6578 47.6623C56.7307 47.4404 56.7992 47.2134 56.8741 46.9902C57.0333 46.5154 57.2185 46.0476 57.3464 45.5646C57.4266 45.262 57.6323 45.0411 57.7549 44.7693C57.8198 44.6254 57.9367 44.5049 58.0557 44.3379C58.0774 44.4647 58.0928 44.5549 58.1094 44.6518C58.1334 44.6482 58.1654 44.6532 58.1793 44.6397C58.3368 44.4865 58.4916 44.3303 58.6476 44.1745C58.7194 44.2423 58.7912 44.3102 58.8549 44.3703C59.0289 44.437 59.0437 44.1287 59.2139 44.2312C59.3539 44.3156 59.4622 44.293 59.5656 44.1694C59.6223 44.2316 59.6786 44.2934 59.7461 44.3674C59.7977 44.334 59.8514 44.2705 59.8904 44.2785C60.2201 44.3457 60.5246 44.6965 60.5261 45.0197C60.528 45.4409 60.5919 45.8751 60.3253 46.2538C60.3279 46.644 60.1783 47.0066 60.1155 47.3855C60.0433 47.8215 59.9329 48.2527 59.8139 48.679C59.6961 49.1011 59.5809 49.5299 59.4002 49.9264C59.2726 50.2062 59.2121 50.4951 59.1455 50.7836C59.0707 51.107 58.8251 51.3844 58.8878 51.7428C58.7076 52.0223 58.6508 52.3549 58.521 52.6561C58.4087 52.9168 58.3401 53.2327 58.3069 53.5268C58.2652 53.896 58.2037 54.2533 58.1018 54.6103C58.0661 54.7352 58.0685 54.8896 58.1498 55.0407C58.3409 55.3954 58.4397 55.43 58.7186 55.1556C59.044 54.8355 59.3959 54.5356 59.6807 54.1823C60.0674 53.7025 60.3874 53.1701 60.6273 52.5996C61.045 51.6064 61.5878 50.6638 61.8481 49.6066C62.3024 48.9306 62.3459 48.0903 62.7357 47.3878C62.7648 47.3353 62.7671 47.2591 62.7596 47.1965C62.7234 46.8931 62.8517 46.6269 62.9701 46.3701C63.2782 45.7017 63.4598 44.9848 63.777 44.3209C63.7804 43.8644 64.0222 43.4754 64.1371 43.0505C64.1579 42.9738 64.1891 42.8913 64.179 42.8164C64.1512 42.6102 64.246 42.4424 64.3144 42.262C64.3916 42.0581 64.4459 41.8456 64.5094 41.6396H64.737C64.8005 41.4687 64.8639 41.2981 64.9273 41.1274C64.9472 41.13 64.967 41.1325 64.9869 41.135V41.6657C65.0672 41.6046 65.0998 41.5799 65.1614 41.533C65.1856 41.639 65.2076 41.7348 65.2316 41.8396C65.3241 41.7612 65.4073 41.6906 65.5015 41.6107C65.6001 41.7368 65.6911 41.8417 65.7685 41.9558C65.8369 42.0567 65.8901 42.1679 65.9828 42.3329C66.0034 42.3363 66.0965 42.3517 66.1804 42.3656C66.2755 42.445 66.1157 42.6398 66.3097 42.6447C66.419 42.6475 66.4564 42.8616 66.6128 42.7205C66.6802 42.6597 66.8114 42.6696 66.9341 42.6429C66.8483 42.9139 66.9439 43.1762 67.2209 43.4298C67.1888 43.5566 67.141 43.677 67.1299 43.8007C67.0714 44.4552 66.8656 45.0822 66.7648 45.7239C66.6801 46.2632 66.4076 46.7551 66.4165 47.3088C66.2643 47.5352 66.2685 47.8123 66.1506 48.0616C65.7701 48.8664 65.4107 49.6817 65.0367 50.4903C64.8999 50.7861 64.7585 51.0843 64.6281 51.3852C64.3169 52.1029 63.9626 52.8001 63.6286 53.5069C63.3387 54.1202 63.0101 54.7103 62.6443 55.2772C62.478 55.535 62.2371 55.7494 62.0323 55.9845C61.6767 56.3926 61.4247 56.8851 61.0022 57.2361C60.7615 57.837 60.2021 58.1984 59.8722 58.7424C59.6561 59.0988 59.2734 59.3516 58.9349 59.6235C58.5942 59.8972 58.2391 60.1438 57.8654 60.3606C57.487 60.5803 57.0766 60.744 56.6541 60.8629C56.4989 60.9066 56.3197 60.9281 56.1643 60.8965C55.7921 60.8206 55.4376 60.7365 55.1264 60.4501C54.7303 60.0857 54.5978 59.6217 54.4401 59.1549C54.3734 58.9575 54.2962 58.7596 54.3317 58.5381C54.3492 58.4289 54.3579 58.3124 54.2476 58.2155C54.2123 58.1846 54.2259 58.0324 54.2696 57.991C54.3636 57.902 54.338 57.8041 54.3334 57.7103C54.3047 57.1345 54.5488 56.5942 54.5512 56.0198C54.5517 55.9133 54.64 55.7918 54.6474 55.6566C54.6534 55.5475 54.7377 55.4576 54.6529 55.3265C54.6211 55.2774 54.7398 55.1387 54.7757 55.0359C54.8094 54.9396 54.8243 54.8367 54.8184 54.7265C54.364 55.2454 53.8885 55.7334 53.5237 56.3104C53.4197 56.4749 53.3833 56.6918 53.1579 56.7631C53.1331 56.771 53.1365 56.8517 53.1164 56.8936C53.0485 57.0347 52.9926 57.1859 52.9006 57.3098C52.8009 57.4441 52.6598 57.5469 52.5486 57.6738C52.4873 57.7437 52.4353 57.8297 52.4052 57.9173C52.2652 58.3252 51.9981 58.669 51.7747 59.0216C51.3764 59.6501 51.0462 60.3122 50.6877 60.9595C50.4201 61.4423 50.1706 61.9345 49.8528 62.387C49.7492 62.5345 49.6488 62.6754 49.664 62.868C49.6676 62.9141 49.6642 62.9763 49.6369 63.0068C49.2815 63.4042 49.1419 63.9196 48.8954 64.3754C48.6936 64.7487 48.4836 65.1206 48.2974 65.4974C48.1518 65.7921 47.9132 66.0348 47.8313 66.3687C47.7586 66.6648 47.4412 66.7328 47.2197 66.8788C47.0964 66.9601 46.9209 66.9625 46.7425 67.0071V66.7095C46.6009 66.6947 46.476 66.6815 46.3686 66.6703C46.2034 66.4068 46.0483 66.1495 45.8801 65.901C45.8522 65.8597 45.767 65.857 45.7103 65.8371C45.6891 65.6052 45.7876 65.3452 45.505 65.227C45.6121 64.9941 45.7381 64.7892 45.8027 64.5665C45.9742 63.9759 46.2957 63.4466 46.4975 62.8772C46.7851 62.0655 47.2477 61.3237 47.435 60.4751C47.4533 60.3921 47.508 60.3172 47.5826 60.1617C46.9199 60.6163 46.3336 61.0184 45.7477 61.4209C45.734 61.4303 45.7257 61.4498 45.7113 61.4557C45.0943 61.7069 44.5714 62.1242 43.9846 62.4309C43.4842 62.6924 42.9559 62.8982 42.4697 63.1829C42.1836 63.3504 41.8979 63.5169 41.5904 63.6349C41.4465 63.6902 41.3004 63.7884 41.1274 63.7433C41.0122 63.7133 40.9378 63.7776 40.8704 63.8579C40.8487 63.8837 40.8209 63.9284 40.7993 63.9265C40.4875 63.8985 40.2639 64.1156 40.0108 64.2309C39.874 64.2931 39.7865 64.0568 39.6874 64.2289C39.359 64.2148 39.0581 64.3787 38.7228 64.3584C38.3618 64.3365 38.0368 64.2838 37.8356 63.9426C37.5838 63.8563 37.4797 63.6222 37.424 63.4137C37.3459 63.1219 37.1936 62.8167 37.2876 62.5101C37.4135 62.0995 37.3549 61.6495 37.5756 61.2604C37.612 61.1963 37.5734 61.0936 37.5883 61.0122C37.6003 60.9465 37.6408 60.886 37.6851 60.7862C37.3572 60.9175 37.0656 61.0228 36.7838 61.1498C36.3844 61.3298 36.0048 61.5616 35.5939 61.7064C35.0007 61.9153 34.8229 62.3703 34.7398 62.9203C34.6929 63.2306 34.4444 64.1029 34.1404 64.3757V63.9463C34.0793 63.9743 34.0352 63.986 34.0357 63.9956C34.0582 64.4827 33.8056 64.8664 33.561 65.3535C33.5321 65.1653 33.5178 65.0723 33.5005 64.9594C33.2199 65.114 33.3485 65.489 33.0697 65.6418C32.9929 65.6102 32.8837 65.4884 32.7823 65.6495C32.7292 65.7337 32.6702 65.8141 32.5617 65.9724C32.4067 65.005 32.6044 64.1399 32.6204 63.2212C32.4238 63.2648 32.2567 63.2898 32.0974 63.3395C31.5736 63.503 31.0521 63.6738 30.531 63.8457C30.4125 63.8848 30.2491 63.9075 30.194 63.9937C30.0764 64.1779 29.8445 64.0887 29.7294 64.238C29.3214 64.204 29.0281 64.5054 28.6636 64.6093C28.3526 64.698 28.0625 64.865 27.7492 64.9727C27.4966 65.0595 27.2583 65.232 27.0898 65.4581C26.7253 65.9475 26.35 66.4309 26.0182 66.9421C25.7306 67.3852 25.4248 67.8157 25.1059 68.2334C24.8197 68.6081 24.5884 69.0334 24.2152 69.3365C23.9655 69.5393 23.7204 69.7711 23.4324 69.8954C23.2259 69.9845 22.9773 70.0123 22.7506 70.0848C22.6826 70.1066 22.5679 70.0732 22.5121 70.0233C22.3978 69.9208 22.296 69.88 22.1608 69.9722C21.9402 70.1225 22.1333 69.8111 21.9922 69.85C21.9702 69.8962 21.9408 69.9581 21.9089 70.025C21.8838 69.9498 21.736 69.986 21.7922 69.8213C21.9053 69.49 21.8022 69.234 21.5125 69.0196C21.402 68.9378 21.4295 68.8352 21.4577 68.7591C21.4897 68.6725 21.5831 68.6094 21.6463 68.5331C22.0628 68.0299 22.3581 67.4438 22.7873 66.8711C22.5598 66.9186 22.3702 66.9324 22.2012 66.9987C21.8612 67.1321 21.5344 67.2916 21.1558 67.2986C21.0548 67.3004 20.9394 67.3612 20.8588 67.4285C20.7506 67.5188 20.6609 67.5047 20.5432 67.4616C20.3147 67.3781 20.3121 67.3853 20.059 67.6067C20.0346 67.5509 20.009 67.4921 19.9737 67.4114C20.0063 67.3575 20.0722 67.2486 20.1575 67.1076C19.825 67.1674 19.6146 67.3159 19.4288 67.5246C19.1789 67.8052 18.8732 68.0142 18.5569 68.2235C18.2254 68.4428 17.9738 68.7824 17.6874 69.0695C17.7144 69.2286 17.5977 69.1923 17.5052 69.2257C17.3149 69.2944 17.1073 69.368 16.9642 69.5011C16.7813 69.6713 16.5676 69.7707 16.3582 69.8862C16.163 69.9939 15.9635 70.0818 15.7885 70.2362C15.6302 70.3758 15.411 70.467 15.2034 70.5264C14.6698 70.6789 14.1882 70.9071 13.8045 71.3191C13.752 71.3754 13.6724 71.4446 13.6062 71.4437C13.203 71.438 12.9483 71.742 12.6257 71.8997C12.413 72.0036 12.2347 72.1776 12.0224 72.2828C11.8263 72.3801 11.6956 72.6131 11.4337 72.5755C11.234 72.8255 10.8941 72.8498 10.666 73.0456C10.4572 73.2248 10.2757 73.1888 10.037 73.1023C9.79364 73.0142 9.61304 72.8727 9.44342 72.6965C9.27345 72.5199 9.10989 72.3301 8.86192 72.2638C8.71022 72.2232 8.68199 72.1061 8.62574 71.9878C8.54581 71.8198 8.41818 71.6979 8.21997 71.648C8.0394 71.6025 7.86112 71.5319 7.69669 71.4445C7.59683 71.3914 7.47917 71.2985 7.45106 71.2003C7.40283 71.0317 7.43757 70.8595 7.27292 70.7073C7.17517 70.617 7.14863 70.431 7.06334 70.2913C6.98276 70.1594 6.97567 69.8892 7.06172 69.7708C7.19518 69.5871 7.27456 69.3782 7.40534 69.1984C7.43481 69.1579 7.48455 69.1312 7.51069 69.0893C7.66807 68.8371 7.71025 68.5392 7.95731 68.3098C8.17341 68.1092 8.28182 67.7779 8.39885 67.4886C8.73009 66.6697 9.22952 65.941 9.624 65.1565C9.9055 64.5966 10.2287 64.0547 10.4683 63.4778C10.6534 63.0322 10.847 62.5864 10.9928 62.1226C11.0813 61.8413 11.2382 61.5821 11.3434 61.3051C11.6208 60.575 12.0344 59.899 12.2096 59.128C12.2264 59.054 12.2697 58.9812 12.3162 58.9196C12.6261 58.5087 12.6698 57.9856 12.8985 57.5361C13.0044 57.3278 13.1983 57.1011 13.119 56.8178C13.3434 56.4864 13.3341 56.1107 13.3202 55.7358C13.3163 55.6288 13.3882 55.5555 13.4138 55.4706C13.537 55.0629 13.6209 54.6435 13.7317 54.2317C13.7636 54.1131 13.8434 54.0081 13.8926 53.8932C14.0112 53.6164 14.0931 53.3348 14.1502 53.0329C14.2375 52.5707 14.1641 52.1004 14.2542 51.6561C14.3416 51.2245 14.2719 50.7943 14.3513 50.3789C14.4105 50.069 14.3962 49.7445 14.5275 49.4407C14.5724 49.3369 14.5958 49.2319 14.681 49.1485C14.7125 49.1177 14.7523 49.0459 14.7389 49.0263C14.5582 48.7608 14.7701 48.5619 14.8427 48.3374C14.92 48.0982 14.9438 47.8343 15.0579 47.6162C15.1765 47.3897 15.1639 47.1647 15.1414 46.944C15.11 46.6371 15.3717 46.4586 15.4195 46.1915C15.4265 46.1523 15.5262 46.0986 15.5771 46.1043C15.7231 46.1208 15.8374 46.0296 15.8483 45.9351C15.8669 45.7742 15.9701 45.7609 16.0484 45.8012C16.2142 45.8866 16.3039 45.5726 16.4989 45.7515C16.5844 45.8299 16.7853 45.8004 16.932 45.7914C17.5081 45.7562 18.0836 45.7096 18.6666 45.6667C18.6868 45.7457 18.6984 45.7912 18.72 45.8756C18.8582 45.886 19.0172 45.898 19.2085 45.9125C19.2085 45.9915 19.2424 46.1071 19.2026 46.1446C19.0362 46.3014 19.105 46.426 19.2057 46.5775C19.2641 46.6655 19.315 46.7866 19.3057 46.8869C19.2402 47.5891 19.4817 48.2765 19.4083 48.9742C19.3447 49.5793 19.3085 50.1952 19.0972 50.7711C19.0382 50.9317 19.0121 51.0791 19.0073 51.2402C19.0015 51.4342 19.0122 51.6217 18.9143 51.8111C18.8366 51.9613 18.9859 52.1781 18.813 52.326C18.7946 52.8753 18.5879 53.3724 18.4102 53.8822C18.3366 54.0932 18.4062 54.3515 18.3955 54.5877C18.3861 54.796 18.4324 55.0019 18.3072 55.2112C18.2137 55.3675 18.3841 55.6066 18.2064 55.778C18.1802 55.8032 18.1993 55.8739 18.1947 55.9233C18.1613 56.2811 18.1272 56.6389 18.0936 56.9967C18.0921 57.0134 18.1007 57.0365 18.0924 57.0465C17.8702 57.3129 17.9212 57.6529 17.8439 57.9581C17.8285 58.0189 17.7905 58.0784 17.7915 58.138C17.8036 58.8587 17.4905 59.4961 17.2625 60.1515C17.1368 60.5126 16.9951 60.8647 16.9803 61.2497C16.975 61.3897 16.9582 61.4986 16.8455 61.6046C16.76 61.6852 16.7136 61.8178 16.6744 61.9354C16.3519 62.9046 16.048 63.5557 15.482 64.4853C15.3379 64.7219 15.2683 65.0037 15.155 65.2887C15.1884 65.4065 15.282 65.4544 15.4359 65.4724C15.8893 65.5255 16.2445 65.3006 16.5935 65.0783C16.7595 64.9725 16.9068 64.8725 17.1121 64.8506C17.2456 64.8364 17.3783 64.759 17.4987 64.6883C17.8789 64.4652 18.2419 64.2182 18.6488 64.0347C18.957 63.8956 19.2772 63.7933 19.5958 63.7579C20.0314 63.7095 20.4156 63.5076 20.8384 63.4388C21.131 63.082 21.5849 63.3239 21.9373 63.1487C22.0691 63.0832 22.2509 63.1235 22.3777 62.9771C22.4177 62.9309 22.5557 62.9524 22.6436 62.9696C22.7174 62.9841 22.7836 63.0374 22.8648 63.0796C22.8648 63.2739 22.8518 63.4763 22.8692 63.6761C22.8816 63.8184 22.8142 63.922 22.7693 64.0423C22.7401 64.1207 22.597 64.2206 22.7633 64.3109C22.7331 64.3582 22.714 64.4249 22.6709 64.4497C22.4237 64.5917 22.1261 64.6537 21.9413 64.9397C22.0035 65.0019 22.074 65.0723 22.1684 65.1665C22.1065 65.2447 22.0333 65.3372 21.9601 65.4296C21.9739 65.4489 21.9878 65.4681 22.0016 65.4873C22.2889 65.3339 22.5763 65.1804 22.8636 65.0269L22.8293 64.9504C22.7209 64.9896 22.6125 65.0289 22.4976 65.0705C22.4951 65.0248 22.4828 64.9896 22.4941 64.9786C22.7255 64.7526 22.987 64.5639 23.2915 64.4565C23.7297 64.3019 24.0686 63.9776 24.4871 63.7899C24.6732 63.7064 24.8485 63.5909 25.0132 63.469C25.4274 63.1623 25.7372 62.7619 26.0134 62.3306C26.4248 61.6883 26.8469 61.0529 27.2632 60.4138C27.3844 60.2277 27.4866 60.0298 27.6072 59.8429C27.737 59.6417 27.9201 59.4507 27.9953 59.2475C28.1048 58.9519 28.2921 58.7232 28.4538 58.4742C28.6968 58.1001 28.9018 57.7038 29.1868 57.3509C29.3439 57.1564 29.4115 56.8749 29.561 56.6487C29.8822 56.1628 30.121 55.6254 30.4325 55.1369C30.8157 54.5361 31.1382 53.9018 31.5218 53.301C31.9167 52.6824 32.3827 52.1115 32.7449 51.4762C32.9824 51.0596 33.2369 50.6602 33.5247 50.2795C33.9206 49.7557 34.2374 49.1771 34.6539 48.667C34.836 48.444 34.9837 48.1931 35.1636 47.9681C35.2169 47.9014 35.3268 47.88 35.419 47.8337C35.4348 47.8792 35.4414 47.9759 35.4784 47.9895C35.5675 48.0221 35.7007 48.0593 35.7627 48.0169C35.9308 47.9019 36.1082 47.9166 36.2845 47.9276C36.4736 47.9395 36.6609 47.9812 36.8615 48.0119V48.346C37.0051 48.4584 37.1328 48.5344 37.2282 48.6396C37.3235 48.7448 37.3866 48.8792 37.4836 49.0319C37.4836 49.2249 37.4713 49.4623 37.4879 49.6977C37.4989 49.8543 37.574 50.0075 37.5778 50.1632C37.5807 50.2835 37.5049 50.4036 37.487 50.5271C37.4679 50.6584 37.5077 50.805 37.4652 50.925C37.3628 51.2141 37.3512 51.5199 37.272 51.8091C37.1966 52.0845 37.1114 52.3518 37.0681 52.6386C37.0024 53.0751 36.9174 53.5192 36.7565 53.927C36.6635 54.1626 36.7156 54.3813 36.667 54.6003C36.6197 54.8134 36.5202 55.0149 36.4726 55.228C36.4202 55.4633 36.4375 55.7189 36.3591 55.9428C36.205 56.3823 36.1916 56.8478 36.0631 57.29C36.0142 57.4584 35.9286 57.6153 35.956 57.8061C35.9789 57.965 35.8105 58.0953 35.8568 58.271C35.8722 58.3294 35.8593 58.3951 35.8593 58.5115C36.0552 58.4082 36.2025 58.3393 36.3721 58.4621C36.4387 58.5103 36.5979 58.5106 36.6661 58.463C36.9739 58.2477 37.2047 58.4727 37.4582 58.5719C37.6182 58.6346 37.7761 58.7553 37.9349 58.7553C38.13 58.7553 38.3237 58.6501 38.5209 58.6026C38.6744 58.5655 38.7916 58.4282 38.9753 58.462C39.0338 58.4728 39.1324 58.4058 39.174 58.347C39.5134 57.868 39.8235 57.37 40.1264 56.8669C40.3073 56.5666 40.5256 56.2889 40.7201 55.9964C41.3165 55.099 41.9448 54.2261 42.6163 53.3819C43.0003 52.8992 43.3921 52.4215 43.7635 51.9298C44.044 51.5585 44.3904 51.2347 44.601 50.8091C44.6436 50.723 44.7397 50.663 44.8122 50.592C45.4238 49.9927 45.931 49.3058 46.4752 48.6488C46.8514 48.1946 47.2084 47.7225 47.5956 47.2751C48.0567 46.7424 48.565 46.2618 49.0504 45.7567C49.2306 45.5691 49.4487 45.4177 49.6512 45.2518C49.8536 45.0859 50.012 44.8807 50.246 44.7354C50.5116 44.5704 50.7091 44.2959 50.8967 44.1085C51.1646 44.0558 51.3846 44.0085 51.6063 43.9701C51.8283 43.9317 52.0468 43.981 52.2835 43.8909C52.4768 43.8172 52.7516 43.9362 52.9843 43.994C53.1183 44.0274 53.2576 44.0877 53.3636 44.1738C53.4959 44.2814 53.8223 44.8311 53.8238 44.9414C53.8283 45.2695 54.0049 45.5789 53.9289 45.9131C53.8486 46.2659 53.8636 46.6382 53.6413 46.963C53.564 47.076 53.4739 47.243 53.5216 47.4188C53.5343 47.4658 53.5438 47.5474 53.5193 47.5657C53.2329 47.7798 53.3151 48.1563 53.128 48.4237C52.9616 48.6617 52.902 48.9711 52.7654 49.2335C52.4893 49.7635 52.2855 50.3227 52.1155 50.89C52.0546 51.0934 51.8152 51.2021 51.866 51.4509C51.8796 51.5174 51.8023 51.5982 51.8017 51.6727C51.8001 51.8658 51.6939 52.0063 51.5822 52.14C51.4742 52.2693 51.3559 52.3949 51.2225 52.4964C51.1123 52.5803 50.9791 52.6627 50.8464 52.683C50.4747 52.7398 50.098 52.7641 49.7271 52.8009C49.6289 52.6078 49.5376 52.4224 49.2327 52.3643C49.2976 52.4589 49.3264 52.5009 49.3591 52.5485C49.1835 52.6621 49.0605 52.504 49.0688 52.4119C49.1089 51.9643 48.7861 51.529 49.0471 51.0698C49.1204 50.9408 49.058 50.7415 49.0928 50.5821C49.1222 50.4477 49.2194 50.3288 49.2543 50.1946C49.2817 50.0892 49.2598 49.9709 49.2598 49.8097C48.7577 50.3898 48.2667 50.8974 47.8475 51.4585C47.4406 52.0032 46.9249 52.463 46.5974 53.0677C46.0249 53.5057 45.7294 54.168 45.2755 54.7033C44.8503 55.2048 44.4211 55.708 44.0634 56.255C44.2616 56.4988 44.4356 56.2789 44.5586 56.225C45.1216 55.9784 45.7152 55.8305 46.2932 55.6345C46.6202 55.5236 46.9412 55.4057 47.2546 55.2588C47.4799 55.1531 47.7329 55.1081 47.9672 55.0195C48.1715 54.9422 48.3885 54.87 48.5591 54.7416C48.6775 54.6525 48.7771 54.612 48.9167 54.615C49.491 54.6274 49.9608 54.3665 50.4004 54.0338C50.5688 53.9063 50.7319 53.7717 50.8971 53.6401C51.029 53.535 51.2418 53.6917 51.3471 53.5011C51.8798 53.4788 52.3519 53.2312 52.8557 53.1028C53.0719 53.0476 53.231 52.8401 53.4781 52.8874C53.5872 52.7261 53.7563 52.7854 53.8944 52.7978C54.1071 52.817 54.3144 52.8168 54.5268 52.813C54.7903 52.8082 55.0567 52.9629 55.3239 53.0494ZM33.2639 55.4273C33.1722 55.6228 33.104 55.8341 32.9844 56.0107C32.5588 56.6393 32.2621 57.3398 31.8519 57.979C31.5315 58.4783 31.3277 59.0499 30.989 59.5464C30.7574 59.8861 30.5488 60.2417 30.3359 60.5939C30.3021 60.6498 30.2999 60.7248 30.2775 60.8128C30.499 60.6929 30.6688 60.5607 30.8607 60.505C31.331 60.3684 31.768 60.1613 32.2013 59.9421C32.3393 59.8723 32.4886 59.8324 32.528 59.6285C32.5612 59.4566 32.7712 59.5023 32.9087 59.4532C32.9352 59.2093 32.9057 58.9707 33.003 58.7295C33.0734 58.5551 33.0035 58.3284 33.0204 58.1271C33.0377 57.92 33.095 57.7165 33.116 57.5095C33.1575 57.1019 33.186 56.6929 33.2196 56.2845C33.2223 56.2513 33.2089 56.2076 33.2255 56.1862C33.4124 55.9451 33.2899 55.6857 33.2639 55.4273ZM40.6507 61.1802C40.6847 61.1902 40.7208 61.2146 40.7441 61.2057C41.5619 60.8934 42.3615 60.5374 43.1653 60.1917C43.2947 60.136 43.4178 60.0602 43.5334 59.9789C43.901 59.7204 44.2655 59.4572 44.6271 59.1903C44.7078 59.1307 44.7653 58.9986 44.8452 58.988C44.9852 58.9695 45.0455 58.8743 45.1214 58.7948C45.1782 58.7353 45.2869 58.6996 45.2792 58.5696C45.0094 58.6164 44.7574 58.6524 44.5092 58.706C44.3567 58.7389 44.213 58.8165 44.06 58.8432C43.6382 58.9166 43.3006 59.2929 42.8279 59.183C42.8083 59.1784 42.7809 59.2296 42.7519 59.2392C42.4988 59.3228 42.2408 59.393 41.9919 59.4873C41.8083 59.5569 41.6392 59.6105 41.5189 59.8325C41.4094 60.0345 41.2838 60.255 41.1339 60.4314C40.9362 60.664 40.7592 60.8954 40.6507 61.1802Z" fill="white"/>
<path d="M74.5747 46.5492C74.7457 46.1953 74.9031 45.8887 75.0441 45.5748C75.6408 44.2462 76.2986 42.9472 76.9817 41.6621C77.2618 41.1351 77.4996 40.5829 77.8517 40.093C77.9777 39.9177 78.0435 39.7001 78.1445 39.5058C78.5854 38.6571 79.033 37.8119 79.4697 36.961C79.6337 36.6415 79.7264 36.2904 79.912 35.9769C80.0097 35.8119 80.0772 35.6328 80.2241 35.4978C80.3804 35.3543 80.3967 35.1318 80.5137 34.956C80.6666 34.7265 80.8099 34.4789 80.9148 34.2126C81.0118 33.9661 81.1858 33.751 81.2984 33.5093C81.4374 33.2106 81.6093 32.9297 81.7546 32.6342C81.9009 32.3367 82.117 32.0728 82.3078 31.7978C82.7726 31.1277 83.2235 30.4469 83.7144 29.7963C83.9464 29.4889 84.2574 29.241 84.4987 29C84.6775 29.0354 84.8299 29.0655 85.0074 29.1007C84.9769 29.1871 84.9046 29.3135 84.929 29.3362C85.0237 29.4244 85.0248 29.5523 84.9843 29.6119C84.9243 29.7003 84.9096 29.7822 84.887 29.8795C84.8222 30.1595 84.7301 30.4217 84.8797 30.7161C84.9286 30.8122 84.8273 30.9863 84.7907 31.1237C84.7342 31.3355 84.6742 31.5464 84.6114 31.7734C84.6479 31.8096 84.7079 31.8691 84.7715 31.9322C84.7624 31.9541 84.7558 31.9793 84.7427 32.0004C84.6923 32.0812 84.6387 32.16 84.5884 32.2409C84.4138 32.5211 84.3175 32.8411 84.1382 33.1205C84.0891 33.1971 84.103 33.3141 84.0804 33.463C84.1691 33.3869 84.204 33.3569 84.2722 33.2983C84.3098 33.6321 84.1728 33.8977 84.0253 34.1186C83.83 34.411 83.6992 34.7298 83.5334 35.0333C83.518 35.0615 83.4723 35.0858 83.4744 35.1089C83.5138 35.5436 83.2264 35.893 83.1638 36.3009C83.1524 36.3751 83.1196 36.4705 83.064 36.5087C82.8974 36.6231 82.8491 36.7955 82.82 36.9682C82.7481 37.3959 82.5216 37.7608 82.3423 38.14C81.9474 38.9752 81.509 39.7897 81.0951 40.616C80.9412 40.9233 80.8054 41.2396 80.6638 41.5529C80.6446 41.5954 80.6356 41.6439 80.6297 41.6906C80.5871 42.0249 80.4519 42.2565 80.2792 42.6614C80.0818 43.1241 79.812 43.5537 79.637 44.0175C79.4442 44.5282 79.2018 45.0215 79.0731 45.5612C78.9613 46.0301 78.741 46.4721 78.6054 46.9368C78.5166 47.241 78.303 47.4853 78.2534 47.8072C78.1668 48.3688 77.8636 48.8701 77.78 49.4372C77.7533 49.618 77.648 49.7866 77.5839 49.9627C77.413 50.4329 77.246 50.9046 77.0743 51.3745C77.0538 51.4307 77.0136 51.4798 76.9571 51.5752C77.0767 51.5633 77.2209 51.5863 77.2485 51.54C77.4064 51.2756 77.7522 51.3098 77.9342 51.0849C77.9765 51.0326 78.1076 51.052 78.2887 51.0247C78.1487 50.9201 78.0805 50.8691 78.013 50.8188C78.0178 50.8093 78.023 50.7755 78.0419 50.7642C78.3115 50.6032 78.5385 50.3654 78.877 50.3268C78.9631 50.3169 79.0568 50.2519 79.12 50.1864C79.3707 49.9267 79.7092 49.8074 80.0016 49.6154C80.1751 49.5016 80.3525 49.4061 80.5121 49.2574C80.6766 49.1041 80.8691 48.9907 80.9522 48.7673C81.3309 48.5925 81.3334 48.1287 81.628 47.8894C81.8385 47.3651 82.2706 46.9828 82.5282 46.4876C82.6303 46.2914 82.7751 46.1176 82.8817 45.9233C83.0209 45.6693 83.2304 45.4505 83.3494 45.2032C83.4744 44.9435 83.6052 44.696 83.7774 44.4695C84.0484 44.1129 84.1923 43.6698 84.5353 43.3629C84.6069 42.9392 84.9188 42.6421 85.1164 42.286C85.4533 41.6788 85.7437 41.0418 86.1845 40.4954C86.2222 40.4487 86.2345 40.3816 86.2581 40.3237C86.4387 39.8814 86.7163 39.4963 86.9737 39.0982C87.3296 38.5481 87.7139 38.0181 88.0851 37.4788C88.2267 37.273 88.3106 37.0277 88.4511 36.8209C88.7751 36.3436 89.1292 35.8866 89.4492 35.4068C89.7462 34.9614 90.0396 34.5169 90.4186 34.1338C90.5043 34.0472 90.5519 33.9228 90.6194 33.8119C90.8667 33.9068 91.0716 33.9924 91.3315 33.8583C91.4922 33.7754 91.7366 33.7941 91.9228 33.844C92.0304 33.8728 92.271 33.8931 92.2133 34.1525C92.2034 34.1968 92.3309 34.2998 92.412 34.3299C92.5475 34.3803 92.5082 34.6172 92.7043 34.5839C92.6663 34.7738 92.795 34.8835 92.9058 35.0018C92.6593 35.2142 92.9919 35.4073 92.9252 35.6342C92.8658 35.8365 92.9292 36.0716 92.9081 36.2892C92.8867 36.5104 92.8636 36.7434 92.7764 36.9429C92.6775 37.169 92.7506 37.4265 92.6082 37.634C92.6693 38.0506 92.3935 38.4095 92.4051 38.8176C92.2247 39.0476 92.3458 39.354 92.2053 39.5974C92.1517 39.6903 92.1304 39.8031 92.1017 39.9088C92.0753 40.0062 92.0102 40.1358 92.0485 40.1989C92.117 40.3117 92.0404 40.3675 92.0318 40.4514C91.9903 40.8517 91.6974 41.2006 91.796 41.6251C91.5537 42.0827 91.6059 42.6113 91.4326 43.0959C91.2969 43.4755 91.1989 43.9156 91.321 44.3835C91.617 44.3208 91.9329 44.4732 92.2309 44.296C92.241 44.29 92.2604 44.2834 92.2657 44.2881C92.4936 44.4877 92.8106 44.425 93.0674 44.5627C93.2121 44.6403 93.3136 44.684 93.3239 44.8641C93.3309 44.9868 93.3562 45.1303 93.4277 45.2223C93.5262 45.349 93.5608 45.4381 93.4264 45.5471C93.5775 45.6595 93.5668 45.8504 93.497 45.95C93.405 46.0814 93.4728 46.224 93.412 46.3224C93.3117 46.4848 93.1692 46.6134 92.9877 46.7153C92.6151 46.9243 92.2051 47.0375 91.8262 47.221C91.4175 47.4188 90.9588 47.5152 90.6015 47.8207C90.4715 47.9318 90.1802 48.3157 90.1744 48.4616C90.1486 49.1112 89.8359 49.6687 89.5936 50.3752C89.5685 50.0895 89.5537 49.9214 89.5389 49.7533C89.513 49.7536 89.487 49.754 89.4611 49.7544V50.297C89.236 50.3304 89.2788 50.5541 89.1895 50.6836C89.0906 50.8271 89.261 51.0759 88.9984 51.149C88.9434 51.0635 88.8782 50.962 88.8014 50.8425C88.7388 51.0209 88.6432 51.143 88.6393 51.321C88.6339 51.5696 88.5064 51.6064 88.2271 51.4634C88.1518 51.5659 88.0735 51.6723 87.9433 51.8494V49.1151C87.1557 49.3702 86.4139 49.6105 85.6721 49.8508C85.4711 50.09 85.1715 50.1145 84.9008 50.193C84.6439 50.2675 84.4154 50.4055 84.1513 50.473C83.9006 50.537 83.6972 50.7432 83.4146 50.7762C83.1638 50.8056 82.9947 51.0528 82.7257 51.0755C82.6654 51.0805 82.606 51.1792 82.559 51.244C82.1446 51.8156 81.7302 52.3872 81.3228 52.9637C81.214 53.1177 81.1541 53.3113 81.0292 53.4478C80.5996 53.9173 80.2876 54.4754 79.8539 54.9435C79.0999 55.7574 79.0728 55.6581 78.1683 56.0056C78.1198 56.0242 78.051 56.0075 77.9968 55.9907C77.8675 55.9504 77.7412 55.9002 77.6137 55.854C77.5151 56.0367 77.4016 55.852 77.2973 55.869C77.2705 55.8733 77.2491 55.9103 77.1878 55.9669C77.1939 55.873 77.1754 55.7972 77.2051 55.7623C77.3276 55.6182 77.3018 55.5023 77.1798 55.3742C77.1285 55.3203 77.1129 55.2339 77.0749 55.1658C77.0286 55.083 76.9913 54.9857 76.9226 54.9266C76.725 54.7565 76.7165 54.7495 76.862 54.5771C77.0507 54.3535 77.2581 54.1433 77.4258 53.9051C77.6627 53.5685 77.8708 53.2117 78.0895 52.8624C78.0939 52.8555 78.0769 52.8353 78.0515 52.7843C77.8431 52.8588 77.6223 52.9234 77.4142 53.0161C77.1932 53.1146 76.9781 53.2043 76.7277 53.2005C76.4476 53.1962 76.2933 53.3478 76.2664 53.6428C76.2511 53.8105 76.2636 53.9806 76.2636 54.1496C76.1265 54.3602 75.8717 54.4487 75.7469 54.6866C75.6441 54.8825 75.4608 55.0363 75.2948 55.2302C75.2004 55.0597 75.0007 55.0682 74.8685 54.9776C74.7398 54.8895 74.6657 54.8725 74.5131 54.9093C74.3145 54.9572 74.1123 54.9209 74.0134 54.6646C73.9727 54.5591 73.8316 54.4747 73.7175 54.4186C73.4916 54.3076 73.4062 54.1021 73.3215 53.8952C73.2268 53.6639 73.1467 53.4266 73.0607 53.1919C73.0445 53.1478 73.0166 53.1029 73.0171 53.0587C73.0225 52.5357 72.8337 52.0411 72.8005 51.5209C72.7808 51.2112 72.6484 50.9095 72.5832 50.5986C72.5248 50.3201 72.4473 50.0443 72.4063 49.7614C72.3057 49.0669 72.1772 48.3778 71.9985 47.6989C71.9587 47.5474 71.9029 47.4 71.8481 47.2311C71.4589 47.8371 71.0939 48.4599 70.7535 49.1031C70.3711 49.8257 69.9638 50.5389 69.5329 51.2336C69.2235 51.7324 68.9271 52.2413 68.5915 52.7271C68.3502 53.0765 68.0786 53.4497 68.0347 53.9134C68.0251 54.015 67.9349 54.1069 67.8934 54.208C67.8045 54.4247 67.6904 54.626 67.6181 54.8563C67.5025 55.2241 67.1482 55.4432 66.8852 55.7165C66.8675 55.7349 66.8154 55.7422 66.7925 55.7301C66.4815 55.5646 66.1801 55.9167 65.8708 55.7451C65.6734 55.899 65.5958 55.7166 65.6149 55.6038C65.6667 55.2984 65.4818 55.1403 65.2995 54.9749C65.2995 54.7139 65.3051 54.4602 65.2961 54.207C65.2934 54.1321 65.2711 54.0357 65.2208 53.9886C65.061 53.839 65.0922 53.6908 65.1411 53.4992C65.3513 52.677 65.6557 51.8853 65.918 51.0808C66.1261 50.4427 66.4611 49.852 66.7628 49.251C66.9455 48.8871 67.1592 48.5369 67.2314 48.1259C67.2471 48.0363 67.2791 47.9327 67.3398 47.8708C67.5932 47.6121 67.6749 47.2641 67.8439 46.9626C68.228 46.2776 68.6003 45.5872 68.9606 44.8894C69.0918 44.6352 69.2108 44.3876 69.2822 44.1079C69.3393 43.8843 69.4756 43.682 69.561 43.4641C69.6529 43.2294 69.8041 43.0143 69.6756 42.7243C69.602 42.5582 69.6991 42.3421 69.5744 42.1552C69.5367 42.0986 69.6489 41.9559 69.6603 41.8492C69.6743 41.7179 69.7691 41.7653 69.8345 41.7335C69.9877 41.6588 70.1941 41.591 70.2582 41.4609C70.3495 41.2759 70.4497 41.2272 70.6331 41.2256C70.7209 41.2249 70.8089 41.135 70.8954 41.1373C71.0007 41.1401 71.1083 41.189 71.2082 41.233C71.4801 41.3527 71.744 41.4918 72.0195 41.6023C72.4787 41.7863 72.7965 42.1069 73.0178 42.5427C73.132 42.7674 73.2978 42.9672 73.3996 43.1964C73.5008 43.4241 73.6046 43.655 73.6299 43.914C73.6449 44.0667 73.6789 44.2472 73.7729 44.3564C73.97 44.5853 73.8837 44.906 74.1076 45.1427C74.2734 45.3179 74.2935 45.6321 74.3743 45.8857C74.4404 46.093 74.5004 46.3022 74.5747 46.5492ZM88.3313 45.2745C88.3841 44.8345 88.2603 44.4137 88.4459 44.0195C88.3676 43.5696 88.5874 43.1426 88.5484 42.6953C88.5426 42.6291 88.5221 42.5323 88.5563 42.4997C88.7206 42.3434 88.62 42.1513 88.6493 41.9785C88.6814 41.7898 88.7188 41.602 88.7476 41.4129C88.7513 41.3892 88.7168 41.3597 88.6991 41.3316C88.6753 41.3559 88.6417 41.3758 88.6298 41.4046C88.4565 41.8247 88.1076 42.1547 88.0146 42.6186C87.9943 42.7198 87.8994 42.8055 87.8417 42.9001C87.5786 43.3308 87.2917 43.7493 87.0604 44.1965C86.7712 44.756 86.5016 45.3222 86.1293 45.8362C85.9365 46.1025 85.7997 46.4093 85.6232 46.7235C85.9015 46.6073 86.147 46.5069 86.3907 46.4026C86.7349 46.2552 87.0957 46.1355 87.4163 45.9477C87.7493 45.7526 88.0428 45.4905 88.3313 45.2745Z" fill="white"/>
<path d="M66.4987 61.9191L64.2248 62.5153C63.1327 62.8016 62.3711 63.7886 62.3711 64.9177V70.4437L63.8261 70.0755V64.6949C63.8261 64.3535 64.0581 64.0558 64.3891 63.9724L66.4398 63.44C66.6751 63.3807 66.9033 63.5586 66.9033 63.8013V65.5854L64.7903 66.1191L64.2988 67.6989L66.9546 67.0592V69.2714L68.3668 68.9084V63.3606C68.3668 62.3841 67.4433 61.6715 66.4987 61.9191Z" fill="white"/>
<path d="M52.4746 71.0752V67.5535C52.4746 66.3618 53.2825 65.3217 54.4372 65.0269L57.5772 64.2251L57.2209 65.7945L54.4302 66.4989C54.0994 66.5824 53.9296 66.8801 53.9296 67.2213V70.6296C53.9296 70.8712 54.1561 71.0489 54.3907 70.9914L56.4903 70.5241C56.8237 70.4425 57.0581 70.1437 57.0581 69.8004V68.8094L55.6275 69.1539L55.1279 67.8101L58.4703 66.9659V69.4298C58.4703 70.62 57.6644 71.6591 56.5117 71.9554L54.3321 72.5156C53.3911 72.7575 52.4746 72.0468 52.4746 71.0752Z" fill="white"/>
<path d="M72.2363 67.9142V60.4725L73.6392 60.1243L75.6221 62.7865L77.5463 59.1267L79.0063 58.7539V66.1741L77.546 66.5495V62.0473L76.1883 64.5796L75.0716 64.8628L73.6874 62.991V67.5419L72.2363 67.9142Z" fill="white"/>
<path d="M88.0563 63.8482V62.3636L84.7757 63.2754C84.5383 63.3414 84.3034 63.1629 84.3034 62.9165V61.8252L88.0563 60.9167V59.4529L85.0437 60.1932L84.3034 61.0513V59.5162C84.3034 59.1807 84.5277 58.8866 84.8512 58.7978L87.5506 58.0565L87.9967 56.4585L84.8864 57.2527C83.7317 57.5475 82.9238 58.5876 82.9238 59.7793V63.2458C82.9238 64.2193 83.8421 64.9314 84.7849 64.689L88.0563 63.8482Z" fill="white"/>
<path d="M95.9934 61.8074L91.916 62.8554L92.3506 61.3351L95.8839 60.446C96.215 60.3627 96.4471 60.0649 96.4471 59.7235V59.2933C96.4471 59.0498 96.2174 58.8718 95.9816 58.9326L93.7782 59.5007C92.8351 59.7439 91.916 59.0318 91.916 58.0578V57.4826C91.916 56.2909 92.7239 55.2508 93.8786 54.9559L97.3623 54.0664L96.9686 55.6835L93.9323 56.4445C93.6008 56.5275 93.3683 56.8255 93.3683 57.1672V57.6086C93.3683 57.8503 93.5949 58.028 93.8296 57.9704L96.1533 57.4C97.0922 57.1696 97.9986 57.8804 97.9986 58.8472V59.2217C97.9986 60.4402 97.1736 61.5041 95.9934 61.8074Z" fill="white"/>
</svg>
