<svg width="104" height="104" viewBox="0 0 104 104" fill="none" xmlns="http://www.w3.org/2000/svg">
<path d="M20.4572 28L41.1803 48.7231L20 69.9024L44.4363 69.9246L52.335 62.0269H45.0697L41.6265 65.4712H31.8375L44.8834 52.4262L57.9284 65.4712H53.4851L49.2371 69.9024H69.7659L27.8634 28H20.4572Z" fill="white"/>
<path d="M34.4023 28L76.3048 69.9024H83.711L62.5437 48.7352L83.5389 28.0361L59.2193 28L54.6984 32.4312H71.4153L58.8275 45.019L46.2398 32.4312H50.0426L54.6984 28H34.4023Z" fill="white"/>
<path d="M23.358 75.5142H22.7986L21.785 73.8913H21.7739L20.7602 75.5142H20.2285L21.4914 73.5479L20.2618 71.6479H20.8212L21.7905 73.1878H21.8016L22.7931 71.6479H23.3249L22.0841 73.5312L23.358 75.5142Z" fill="white"/>
<path d="M27.1899 75.5142H26.7246V71.6479H28.2645C28.6042 71.6479 28.869 71.7421 29.0593 71.9305C29.2494 72.1188 29.3445 72.3902 29.3445 72.7447C29.3445 73.0291 29.2789 73.2626 29.1479 73.4454C29.0168 73.6282 28.8239 73.7492 28.5691 73.8082L29.4554 75.5142H28.9291L28.0928 73.8525H27.1899V75.5142ZM28.2645 73.4537C28.4491 73.4537 28.5921 73.4058 28.6938 73.3097C28.7953 73.2137 28.846 73.077 28.846 72.8998V72.6118C28.846 72.4345 28.7953 72.2979 28.6938 72.2019C28.5921 72.1059 28.4491 72.0579 28.2645 72.0579H27.1899V73.4537H28.2645Z" fill="white"/>
<path d="M32.9219 75.5142V71.6479H35.2815V72.0579H33.3872V73.354H35.1707V73.7639H33.3872V75.1043H35.2815V75.5142H32.9219Z" fill="white"/>
<path d="M41.3826 75.5142L40.9948 74.3732H39.4328L39.0451 75.5142H38.5742L39.9257 71.6479H40.5185L41.87 75.5142H41.3826ZM40.2249 72.08H40.1972L39.5436 73.9633H40.8785L40.2249 72.08Z" fill="white"/>
<path d="M45.2324 75.5142V71.6479H45.6977V75.1043H47.3428V75.5142H45.2324Z" fill="white"/>
<path d="M57.4338 74.9544H57.4171C57.3691 75.134 57.2519 75.2832 57.0654 75.4022C56.879 75.5212 56.638 75.5807 56.3426 75.5807C56.1062 75.5807 55.8893 75.5373 55.6918 75.4506C55.4942 75.3638 55.3252 75.2364 55.1849 75.0683C55.0446 74.9004 54.9347 74.6917 54.8553 74.4424C54.776 74.1932 54.7363 73.9061 54.7363 73.5811C54.7363 73.2599 54.7751 72.9746 54.8526 72.7253C54.9302 72.4761 55.0409 72.2675 55.1849 72.0994C55.329 71.9314 55.5025 71.8031 55.7057 71.7145C55.9087 71.6258 56.134 71.5815 56.3814 71.5815C56.7284 71.5815 57.0183 71.6582 57.251 71.8114C57.4836 71.9647 57.6627 72.1686 57.7883 72.4235L57.4061 72.6561C57.3175 72.4493 57.1854 72.2869 57.0101 72.1686C56.8346 72.0505 56.6251 71.9914 56.3814 71.9914C56.2115 71.9914 56.0564 72.0221 55.9161 72.0832C55.7757 72.1443 55.6548 72.2305 55.5533 72.3416C55.4517 72.4528 55.3732 72.5862 55.3179 72.7419C55.2625 72.8975 55.2348 73.0716 55.2348 73.2643V73.8924C55.2348 74.0851 55.2625 74.2602 55.3179 74.4177C55.3732 74.5752 55.4517 74.7096 55.5533 74.8206C55.6548 74.9319 55.7794 75.0181 55.9271 75.0792C56.0749 75.1403 56.241 75.1708 56.4257 75.1708C56.5586 75.1708 56.6851 75.1533 56.8051 75.118C56.9251 75.0828 57.0303 75.0299 57.1208 74.9595C57.2113 74.889 57.2823 74.8009 57.3341 74.6951C57.3858 74.5894 57.4116 74.4643 57.4116 74.3195V73.9356H56.5586V73.5257H57.8658V75.5142H57.4338V74.9544Z" fill="white"/>
<path d="M63.9842 75.5142L63.5964 74.3732H62.0344L61.6467 75.5142H61.1758L62.5273 71.6479H63.1201L64.4716 75.5142H63.9842ZM62.8265 72.08H62.7987L62.1451 73.9633H63.48L62.8265 72.08Z" fill="white"/>
<path d="M70.8472 72.2573H70.8195L70.4927 72.9053L69.5677 74.5892L68.6426 72.9053L68.3159 72.2573H68.2882V75.5142H67.834V71.6479H68.4544L69.5622 73.7307H69.5898L70.7032 71.6479H71.3014V75.5142H70.8472V72.2573Z" fill="white"/>
<path d="M75.0176 75.5142V71.6479H77.3772V72.0579H75.4829V73.354H77.2664V73.7639H75.4829V75.1043H77.3772V75.5142H75.0176Z" fill="white"/>
<path d="M82.0361 75.5807C81.7223 75.5807 81.4546 75.5206 81.233 75.4007C81.0114 75.2808 80.8231 75.1154 80.668 74.905L81.0114 74.6169C81.148 74.7979 81.2995 74.9354 81.4657 75.0296C81.6318 75.1238 81.8275 75.1708 82.0527 75.1708C82.3297 75.1708 82.541 75.1044 82.687 74.9714C82.8328 74.8385 82.9058 74.6612 82.9058 74.4397C82.9058 74.2551 82.8504 74.1129 82.7396 74.0132C82.6289 73.9135 82.446 73.8341 82.1912 73.775L81.8755 73.703C81.5211 73.6218 81.2505 73.499 81.064 73.3346C80.8776 73.1704 80.7843 72.9386 80.7843 72.6395C80.7843 72.4697 80.8157 72.3182 80.8785 72.1853C80.9413 72.0523 81.0289 71.9416 81.1416 71.8529C81.2542 71.7643 81.389 71.697 81.5459 71.6508C81.7029 71.6047 81.8755 71.5815 82.0638 71.5815C82.3555 71.5815 82.6058 71.6351 82.8144 71.7421C83.023 71.8493 83.1994 72.0062 83.3434 72.213L82.9944 72.4678C82.8872 72.3201 82.7581 72.2038 82.6066 72.1188C82.4552 72.0339 82.2669 71.9914 82.0417 71.9914C81.7943 71.9914 81.5994 72.044 81.4573 72.1493C81.3151 72.2545 81.2441 72.4124 81.2441 72.6229C81.2441 72.8076 81.3041 72.9469 81.4241 73.0411C81.5441 73.1352 81.726 73.21 81.9697 73.2654L82.2854 73.3374C82.6657 73.4224 82.9408 73.5516 83.1108 73.7251C83.2805 73.8988 83.3655 74.1295 83.3655 74.4175C83.3655 74.5948 83.3351 74.7554 83.2741 74.8994C83.2132 75.0435 83.1254 75.1653 83.0111 75.265C82.8966 75.3647 82.7571 75.4423 82.5929 75.4976C82.4285 75.553 82.2429 75.5807 82.0361 75.5807Z" fill="white"/>
</svg>
