<svg width="104" height="104" viewBox="0 0 104 104" fill="none" xmlns="http://www.w3.org/2000/svg">
<path d="M23.8026 76.628C23.8026 76.6488 23.6883 77.948 22.2539 77.948H17.7327C17.7015 77.948 15.1758 77.896 15.1758 74.4869V71.1609C15.1758 70.3294 15.7786 68.7495 18.0549 68.7495C20.3623 68.7495 23.522 68.7807 23.5532 68.7807H23.6051V70.901H18.8968C18.8552 70.901 17.7327 70.9218 17.7327 72.1171V74.7883C17.7327 74.8195 17.8574 75.6926 18.9279 75.6926H20.8508C20.8612 75.6926 21.1314 75.6406 21.1314 75.1105C21.1314 74.4245 21.1106 73.9048 21.1106 73.8321C21.0898 73.7801 20.9547 73.4371 20.5702 73.3332L20.5494 73.3228L20.539 73.302C20.4662 73.1357 20.487 73.0525 20.4974 73.0421L20.5078 73.011H23.5532C23.574 73.011 23.813 73.0525 23.7922 73.4683C23.7818 73.8425 23.8026 76.5968 23.8026 76.628Z" fill="white"/>
<path d="M89.7927 70.9219H89.7304C89.2003 70.9427 88.587 70.9427 87.9322 70.9427C86.8721 70.9427 85.9782 70.9219 85.7599 70.9219V77.9273H83.3278V70.8907H77.5904V72.2107C77.5904 72.2211 77.6008 72.5433 78.1933 72.5433H80.3656V74.3103H78.214C78.1933 74.3103 77.6216 74.3206 77.6216 74.7572C77.6216 75.1314 77.632 77.8753 77.632 77.8753V77.9273L75.1895 77.8857V69.9241C75.1895 69.5811 75.3246 68.7808 76.5303 68.7808H87.8491C88.639 68.7808 89.4913 69.685 89.8031 70.8491L89.7927 70.9219Z" fill="white"/>
<path d="M56.138 75.6822V77.9377H49.6627C49.1222 77.9377 48.7272 77.8026 48.4882 77.5219C48.1972 77.1893 48.2595 76.784 48.2595 76.7632V70.1735C48.2595 68.9575 49.3717 68.7808 49.3924 68.7808H56.1276L56.0756 70.8179H56.0237C56.0237 70.8179 53.9969 70.8179 52.5625 70.8179C51.731 70.8179 51.2633 70.8179 51.1802 70.8179H51.1594C51.0139 70.8179 50.8995 70.8595 50.8268 70.9427C50.7021 71.0778 50.7125 71.2649 50.7125 71.2649V71.9717C50.7125 72.3978 51.149 72.4082 51.1698 72.4082L55.5871 72.3978V74.331H51.1802C50.6501 74.3622 50.6397 74.778 50.6397 74.7988V75.2145C50.6397 75.6511 51.1074 75.6822 51.1282 75.6822H56.138Z" fill="white"/>
<path d="M64.7751 77.8237V77.9276H58.57C58.57 77.9276 58.5284 77.938 58.4765 77.938C58.2686 77.938 57.5722 77.8653 57.5722 76.9298C57.5722 75.8593 57.541 68.9162 57.541 68.8435V68.7915H60.0771V75.2356C60.0771 75.2564 60.0979 75.7242 60.5552 75.7242H63.5694L63.5798 75.7657C63.5798 75.7865 64.0267 77.8237 64.7751 77.8237Z" fill="white"/>
<path d="M46.8029 70.236C46.8029 71.5872 46.7822 77.8443 46.7822 77.9066V77.9586H44.2461L44.2565 72.242L41.2527 77.7715C41.2423 77.7819 41.1071 78.0002 40.9305 78.0002C40.8265 78.0002 40.7642 77.917 40.6498 77.7507C40.4627 77.4077 38.1865 73.3646 37.6876 72.4707V77.9066L35.0684 77.9274L35.1099 70.0801C35.1099 70.0697 35.1307 68.7705 36.2533 68.7705H37.3862H37.3966C37.4797 68.7705 37.7811 68.8017 38.041 69.259C38.2073 69.5293 40.681 73.3126 40.7018 73.3542C40.7538 73.4581 40.8473 73.562 40.8889 73.562C40.9305 73.562 41.0552 73.4477 41.1487 73.3542L43.6952 69.2694C43.7056 69.2486 43.9654 68.7913 44.3604 68.7809H45.7532C45.7636 68.7809 46.8029 68.8329 46.8029 70.236Z" fill="white"/>
<path d="M71.1252 68.7915H67.2275C66.5623 68.7915 64.6914 69.2592 64.6914 71.3588V75.1629C64.6914 75.1941 64.9512 77.9692 66.9469 77.9692C70.1377 77.9692 71.3538 77.9068 71.3746 77.9068C71.3954 77.9068 73.7652 77.5015 73.7652 75.0486V71.4003C73.7548 71.3796 73.4949 68.7915 71.1252 68.7915ZM69.9611 75.7761C69.3582 75.7761 68.0798 75.7553 68.0694 75.7553H68.0382C67.9551 75.7553 67.7472 75.7449 67.5601 75.5994C67.3106 75.4123 67.1859 75.0901 67.1859 74.6432C67.1859 73.2504 67.2483 71.7641 67.2483 71.7433C67.2483 71.7433 67.2275 71.3796 67.4665 71.1197C67.6328 70.9326 67.8927 70.8495 68.2357 70.8495L70.2833 70.8599C70.3248 70.8599 71.2603 70.9014 71.2603 71.9408C71.2603 73.0426 71.1875 74.6432 71.1875 74.664V74.6744V74.6848C71.1875 74.6848 71.2499 75.1005 70.99 75.4227C70.7822 75.6618 70.4392 75.7761 69.9611 75.7761Z" fill="white"/>
<path d="M34.2483 77.8647C34.1132 77.5321 30.9743 69.6432 30.7352 69.1963C30.517 68.7909 30.07 68.7598 29.9453 68.7598H29.9037H28.5006C27.721 68.7598 27.6275 69.2379 27.6171 69.3106L24.3223 77.9791L27.0558 77.9479L27.6795 76.025C28.0121 76.025 30.4754 76.0354 30.808 76.0354C31.1302 77.0124 31.3796 77.8855 31.3796 77.8959L31.39 77.9375H34.2691L34.2483 77.8647ZM28.2927 74.0502L29.2177 71.3894L30.0908 74.0502H28.2927Z" fill="white"/>
<path d="M61.8234 64.3115C61.7189 64.3115 61.6562 64.3115 61.6562 64.3115C61.6562 64.3115 61.7189 64.322 61.8234 64.3115Z" fill="white"/>
<path d="M78.7544 42.391C78.7544 42.391 78.8687 38.722 78.453 36.373C77.9645 33.5979 76.5405 31.1761 76.0312 30.5317C75.5739 29.9496 74.5241 28.2139 71.1877 27.1121C68.5685 26.2495 65.4088 26.2495 62.7895 26.1559C60.1703 26.0624 48.9866 26 48.9866 26C48.9866 26 41.0665 26.052 37.7821 26.2183C32.5852 26.4677 31.286 26.5821 28.937 27.5799C26.588 28.5777 24.9769 30.9267 24.4676 32.8495C23.948 34.762 24.1247 38.0048 24.1247 38.0048L24.2286 51.5999C24.2286 51.5999 24.1454 53.7202 24.4157 55.9133C24.7899 58.7508 25.2784 60.0085 25.7773 60.7672C26.1722 61.37 27.0349 62.5861 28.6252 63.3449C29.7789 63.8957 33.2296 63.9789 34.9134 63.9893C37.7301 64.1036 45.4735 64.3946 47.5107 64.405C51.1693 64.4154 54.5161 64.3635 57.2496 64.3011C58.9542 64.3011 61.2928 64.3011 62.8103 64.2803C62.3738 64.3011 62.0204 64.3115 61.8333 64.3115C62.3738 64.3115 64.1407 64.2907 65.2632 64.1868C66.5937 64.062 68.4645 63.376 69.4519 62.5965C70.4394 61.817 71.3644 60.7672 72.3622 58.8859C73.0586 57.5555 73.2872 53.8449 73.2872 53.8449L73.3184 48.3986C73.3184 48.3986 73.2561 45.5091 72.9235 44.054C72.5909 42.6093 72.0192 41.414 70.668 39.9485C69.4727 38.6388 67.6954 38.0568 66.1467 37.7865C64.598 37.5163 59.9728 37.5683 59.9728 37.5683L48.4981 37.4955L40.63 37.6514C40.63 37.6514 38.7279 37.6306 37.2832 37.7969C35.8384 37.9528 35.2876 38.4725 34.903 38.7636C34.5184 39.0546 33.7909 39.6678 33.4998 40.676C33.188 41.757 33.2608 44.3346 33.2608 44.3346C33.2608 44.3346 33.3855 48.7312 33.4063 49.3652C33.4271 49.9992 33.7909 49.9265 33.7909 49.9265C33.7909 49.9265 36.327 50.2279 36.4413 50.2175C36.5556 50.2071 36.4829 50.3111 36.5244 50.2071C36.5244 50.1967 36.5348 50.1759 36.5452 50.1655C36.5556 50.1655 36.566 50.1655 36.566 50.1655C36.566 50.1655 37.1377 48.6481 38.9046 48.5441C40.6716 48.4402 60.1183 48.1388 61.7086 48.1076C63.2988 48.0764 63.6626 48.5649 63.8393 48.9391C64.016 49.3237 64.0784 50.6021 64.0784 50.6021L64.0472 52.9407C64.0472 52.9407 63.8081 54.2711 63.1429 54.7908C62.592 55.2169 62.592 55.3728 61.3864 55.4144C60.1807 55.456 37.8133 55.2169 37.8133 55.2169C37.8133 55.2169 35.2564 55.3001 34.1858 53.9385C33.1153 52.5665 32.1071 51.7558 32.0655 48.1076C32.0551 45.5923 32.0863 39.647 32.0863 39.647C32.0863 39.647 31.972 36.9135 33.8636 35.1257C35.4331 33.629 38.8838 33.8265 38.8838 33.8265C38.8838 33.8265 47.1157 33.8265 49.9532 33.7538C52.7907 33.681 66.9574 34.0968 67.685 34.1279C68.4022 34.1695 69.9716 34.2423 71.8841 36.2483C72.5493 36.9654 73.6406 38.7947 73.8901 40.4681C74.1395 42.1415 74.4721 48.118 74.4721 48.118C74.4721 48.118 74.4721 48.1388 74.4721 48.1907C74.4825 48.8871 74.5865 54.4998 74.046 56.6201C73.4639 58.8859 72.8091 60.7152 71.1669 62.3367C70.7927 62.7108 70.4394 63.085 70.4394 63.085C70.4394 63.085 70.4394 63.0954 70.429 63.1058C70.3978 63.1682 70.3354 63.3449 70.429 63.428C70.429 63.428 70.4394 63.4384 70.4497 63.4384C70.6472 63.9061 71.5515 64.2283 71.6242 64.2491C71.7178 64.2803 72.622 64.1348 73.2665 63.7294C75.8857 62.0145 76.5301 61.131 77.4552 58.8444C78.796 56.0172 78.8375 52.473 78.8375 51.9637C78.8063 51.444 78.7544 42.391 78.7544 42.391Z" fill="white"/>
</svg>
