<svg width="104" height="104" viewBox="0 0 104 104" fill="none" xmlns="http://www.w3.org/2000/svg">
<path d="M79.2306 25H52.1152V34.0881H79.2306V25Z" fill="white"/>
<path d="M79.2306 34.0879L71.9109 41.2023H59.229L52.1152 34.0879H79.2306Z" fill="#7F7F7F"/>
<path d="M74.6361 45.4875V53.8012H52.1152V34.0879L59.229 41.2023V45.4875H74.6361Z" fill="white"/>
<path d="M74.6361 53.8013L67.9986 60.7178H59.1956L52.1152 53.8013H74.6361Z" fill="#7F7F7F"/>
<path d="M59.1956 60.7178V71.8966H52.1152V53.8013L59.1956 60.7178Z" fill="white"/>
<path d="M52.1154 25H25V34.0881H52.1154V25Z" fill="#E7EDF1"/>
<path d="M52.1154 34.0879L45.0016 41.2023H32.3191L25 34.0879H52.1154Z" fill="#7F7F7F"/>
<path d="M52.1147 34.0879V53.8012H29.5938V45.4875H45.0009V41.2023L52.1147 34.0879Z" fill="#E7EDF1"/>
<path d="M52.1147 53.8013L45.0343 60.7178H36.2313L29.5938 53.8013H52.1147Z" fill="#7F7F7F"/>
<path d="M52.1155 53.8013V71.8966H45.0352V60.7178L52.1155 53.8013Z" fill="#E7EDF1"/>
<path d="M59.1959 71.8965L52.1156 78.9998L45.0352 71.8965H59.1959Z" fill="#7F7F7F"/>
</svg>
