<svg width="104" height="104" viewBox="0 0 104 104" fill="none" xmlns="http://www.w3.org/2000/svg">
<g clip-path="url(#clip0_463_4027)">
<path d="M46.9913 47.6988C56.6788 39.8616 70.6481 37.1976 78.3981 37.0426C74.7481 30.6184 68.8799 25.7463 61.8941 23.3399C54.9082 20.9335 47.2844 21.158 40.4523 23.9715C33.6202 26.7849 28.049 31.9939 24.7834 38.6219C21.5179 45.2498 20.7822 52.8413 22.7144 59.9729L37.4684 42.5935H38.5534L40.1906 54.2185C42.2486 51.8353 44.5183 49.6434 46.9719 47.6698L46.9913 47.6988ZM77.7297 59.8373C77.7402 60.099 77.6976 60.3601 77.6043 60.6049C77.5111 60.8496 77.3692 61.073 77.1872 61.2613C77.0026 61.455 76.7799 61.6084 76.5332 61.7117C76.2864 61.8151 76.0209 61.8663 75.7534 61.862H74.7847C74.5094 61.9028 74.2283 61.8786 73.964 61.7913C73.6998 61.7039 73.4596 61.556 73.2628 61.3592C73.066 61.1624 72.918 60.9222 72.8307 60.6579C72.7434 60.3936 72.7192 60.1126 72.76 59.8373H73.7772C73.7729 59.8953 73.7729 59.9536 73.7772 60.0116C73.7716 60.1353 73.7981 60.2582 73.8541 60.3686C73.9101 60.4789 73.9938 60.5729 74.0969 60.6413C74.3049 60.7837 74.552 60.8582 74.8041 60.8545C74.9458 60.8671 75.0886 60.8503 75.2236 60.8053C75.3586 60.7603 75.4829 60.688 75.5887 60.5929C75.7559 60.3741 75.8384 60.1024 75.8213 59.8276C75.8234 59.6938 75.7978 59.5611 75.7461 59.4377C75.6945 59.3143 75.6178 59.203 75.5209 59.1107L73.3122 56.6985C72.9405 56.3128 72.7293 55.8003 72.7213 55.2648V54.761C72.7157 54.4942 72.7653 54.2292 72.867 53.9824C72.9687 53.7357 73.1203 53.5127 73.3122 53.3273C73.4968 53.1336 73.7194 52.9802 73.9662 52.8769C74.2129 52.7735 74.4784 52.7223 74.7459 52.7266H75.7147C76.9838 52.7266 77.6522 53.4048 77.7394 54.761H76.7706C76.6834 54.0732 76.3638 53.7341 75.8019 53.7341C75.507 53.7128 75.2153 53.8066 74.9881 53.9957C74.892 54.0969 74.8188 54.2177 74.7737 54.3498C74.7285 54.4819 74.7124 54.6221 74.7266 54.761C74.7321 55.0276 74.8355 55.2828 75.0172 55.4779L77.1872 57.8901C77.554 58.2789 77.7645 58.7894 77.7781 59.3238V59.8373H77.7297ZM68.7494 59.8373C68.7468 60.3735 68.5327 60.887 68.1535 61.2661C67.7744 61.6453 67.2609 61.8594 66.7247 61.862H65.7075C65.4322 61.9028 65.1511 61.8786 64.8869 61.7913C64.6226 61.7039 64.3824 61.556 64.1856 61.3592C63.9888 61.1624 63.8408 60.9222 63.7535 60.6579C63.6662 60.3936 63.642 60.1126 63.6828 59.8373H64.6516C64.6472 59.8953 64.6472 59.9536 64.6516 60.0116C64.646 60.1353 64.6725 60.2582 64.7285 60.3686C64.7845 60.4789 64.8681 60.5729 64.9713 60.6413C65.1793 60.7837 65.4264 60.8582 65.6784 60.8545C65.8189 60.87 65.961 60.8547 66.0949 60.8095C66.2288 60.7643 66.3512 60.6904 66.4534 60.5929C66.6206 60.3741 66.7031 60.1024 66.6859 59.8276C66.6881 59.6938 66.6625 59.5611 66.6108 59.4377C66.5591 59.3143 66.4825 59.203 66.3856 59.1107L64.235 56.6985C63.8633 56.3128 63.6521 55.8003 63.6441 55.2648V54.761C63.6441 54.2231 63.8571 53.7072 64.2365 53.3259C64.6159 52.9447 65.1309 52.7292 65.6688 52.7266H66.7247C67.9938 52.7266 68.6622 53.4048 68.7494 54.761H67.7806C67.6934 54.0732 67.3738 53.7341 66.8119 53.7341C66.517 53.7128 66.2253 53.8066 65.9981 53.9957C65.902 54.0969 65.8288 54.2177 65.7837 54.3498C65.7385 54.4819 65.7225 54.6221 65.7366 54.761C65.7409 55.0297 65.8484 55.2864 66.0369 55.4779L68.1875 57.8901C68.5575 58.2768 68.7685 58.7887 68.7784 59.3238L68.7494 59.8373ZM59.8272 61.6876H54.8478V52.7557H59.8272V53.7245H56.8434V56.747H58.8391V57.7157H56.8434V60.7188H59.8272V61.6876ZM82.3409 52.0001C82.3357 46.822 81.0014 41.7319 78.4659 37.217C71.2003 38.8735 63.7603 41.5376 57.9866 45.5676C51.4766 50.111 46.9525 55.7976 45.5284 60.6123L45.4219 60.932L45.2184 61.6876H35.1338L33.5934 49.6945L23.2763 61.7941C25.5926 68.6006 30.2508 74.3633 36.4204 78.055C42.59 81.7467 49.8701 83.1276 56.9631 81.9514C64.056 80.7753 70.5008 77.1186 75.1487 71.6331C79.7965 66.1476 82.3454 59.1899 82.3409 52.0001Z" fill="white"/>
</g>
<defs>
<clipPath id="clip0_463_4027">
<rect width="62" height="62" fill="white" transform="translate(21 21)"/>
</clipPath>
</defs>
</svg>
