<svg width="104" height="104" viewBox="0 0 104 104" fill="none" xmlns="http://www.w3.org/2000/svg">
<path d="M52.3106 35.678C52.9972 35.7101 53.653 35.9724 54.1725 36.4226C54.8804 37.0927 55.066 38.2101 54.7309 39.1041C53.4285 41.7851 50.331 43.5758 48.2143 44.1682C46.948 44.4661 45.3472 44.4661 44.1926 44.0193C43.6336 44.3544 43.1621 45.4372 42.4795 44.9873C41.4916 44.2157 42.3468 43.0082 41.7765 42.1514C41.6589 41.975 41.3627 41.9621 41.2138 41.6734C40.4314 39.9604 41.3999 38.3218 42.4795 37.0188C44.2795 35.0106 49.4434 32.7731 52.3106 35.678ZM46.3152 37.0182C45.3094 37.2044 44.1737 37.6419 43.5597 38.359C42.9452 39.0755 42.5545 39.7742 42.9268 40.5188C44.2304 39.5508 44.8632 38.2101 46.3157 37.3911C46.3152 37.2416 46.5385 37.1299 46.3152 37.0182ZM52.3855 37.3911C49.8157 37.1671 47.8793 39.1041 46.0546 40.9655C45.9429 41.2634 45.2728 41.5984 45.794 41.9335C48.2521 42.1568 50.598 41.45 52.3855 39.8109C52.9073 39.3269 53.2785 38.6941 53.019 38.0234C52.9073 37.7633 52.6445 37.5027 52.3855 37.3911ZM74.653 48.4878C75.8448 51.3927 76.85 55.9723 74.653 58.7656C74.0573 59.4357 73.0149 60.0534 72.3448 59.5474C69.8867 57.5742 68.8448 54.7438 67.3179 52.2112C67.0945 52.0995 67.0945 52.3979 66.9829 52.5096C66.4244 55.0789 67.4668 58.4305 65.7171 60.4408C65.047 60.5525 64.42 60.2078 64.1902 59.5474C63.3334 56.9036 64.2263 54.1476 64.4497 51.5039C64.9714 50.1631 65.1948 48.5995 66.3494 47.5938C68.2114 48.3384 69.1049 50.4242 70.184 51.9511C70.9668 53.1052 71.5992 54.4088 72.4927 55.4512C73.2745 55.1161 72.8898 54.0942 72.8655 53.4775C72.5666 51.0571 71.8965 48.8229 71.263 46.5142C71.2269 45.9185 70.8918 44.9128 71.5236 44.5405C73.2016 45.2856 73.9079 47.0354 74.653 48.4878ZM63.4073 47.5938C63.4073 48.1528 62.9606 48.8509 62.5872 48.9346C59.0127 49.493 55.0282 49.1579 51.6771 50.2748C51.5654 50.6843 52.0494 50.7588 52.31 50.8704C55.1766 51.3172 58.1937 51.4289 60.9869 52.1367C62.4637 52.5117 62.9983 54.2598 63.11 55.7118C63.1785 56.8567 62.7383 58.2438 61.6203 59.0262C58.8654 60.7764 54.6576 60.7014 51.8638 59.1012C50.7961 58.5023 49.7785 57.5376 49.704 56.3457C49.7105 55.3994 50.1141 54.6542 50.7842 54.2976C53.4657 53.2174 56.7796 53.8142 59.0888 55.1911C59.2366 55.9362 58.4306 55.8957 58.0448 56.1596C55.475 57.6492 53.5391 54.4848 51.1559 55.6378C50.8209 55.8612 50.5786 56.4844 50.9698 56.6808C53.9114 57.9843 57.1885 57.0531 60.0929 56.234C60.428 56.1223 60.838 55.7873 60.8747 55.4522C60.763 54.2604 59.4228 54.0003 58.566 53.6653C56.0339 53.0324 53.2413 53.0324 50.5225 52.7718C50.0013 52.6601 49.3371 52.297 49.1823 51.8783C48.8845 50.9848 48.8845 49.7557 49.5546 49.0112C53.0173 45.9574 58.2676 46.2185 62.6617 47.0375C62.96 47.1471 63.2951 47.2587 63.4073 47.5938ZM47.1347 49.009C47.4698 52.5835 47.6559 55.8984 47.5815 59.659C47.507 60.1425 46.9486 60.2547 46.5763 60.4408C45.9806 60.5525 45.2107 60.4257 44.9749 60.1058C44.1187 58.7273 44.4165 56.8664 44.342 55.1906C44.4537 52.5473 44.4165 49.6797 45.1616 47.2215C45.3041 46.8643 45.72 46.5514 46.0551 46.7742C46.9486 47.2215 47.0975 48.1155 47.1347 49.009ZM88.5068 48.4878C88.6859 48.7889 88.8732 49.254 88.5068 49.4558C86.831 50.2003 84.5601 49.8653 82.6231 50.0886C82.1019 50.5354 81.6919 51.28 81.8775 51.9506C82.0647 52.0623 82.2314 52.2322 82.437 52.2107C83.6277 52.2857 85.4158 51.6522 86.1987 52.7691C86.3896 53.1014 86.1728 54.3424 85.6402 54.3705C84.1872 54.5577 81.7981 54.1881 81.0962 54.5577C80.2027 55.1533 80.2766 56.3074 79.9416 57.2392C80.575 57.6487 81.2381 57.2295 81.9891 57.127C83.3682 56.9036 84.8951 56.4941 86.272 56.7919C86.5326 57.2759 86.9055 57.7976 86.6443 58.3933C84.2968 60.2552 81.2689 62.1636 78.0429 60.8137C76.8322 60.2709 76.2927 58.4305 76.7027 56.8675C76.9628 55.7501 78.1169 54.6704 77.41 53.4786C77.2984 52.9568 77.5967 52.5106 78.0435 52.399C79.272 52.399 79.0109 50.8721 79.6443 50.1642C78.937 49.3824 77.15 49.4196 77.3361 47.8555C78.1929 47.4087 79.2359 47.5576 80.2027 47.4087C82.3997 46.9615 84.8574 46.7009 87.0932 46.9615C87.5383 47.051 88.1345 47.9294 88.5068 48.4878ZM35.3301 39.9976C38.7664 42.8064 43.2247 47.5943 42.6662 53.1052C41.9956 57.4626 37.3782 60.7392 33.4681 61.7821C29.6697 62.899 24.9034 62.7873 21.0301 61.8938C20.7695 62.6017 20.5089 63.4574 19.6898 63.7558C19.1686 63.9419 18.498 63.8302 18.0885 63.4952C16.9344 62.415 17.8651 60.3297 16.1893 59.6601C12.9121 58.2821 9.37432 55.5634 7.69904 52.2123C7.47567 51.5422 7.73627 50.8721 8.14578 50.3509C10.7156 48.3028 13.955 47.4837 17.195 46.8503C17.3811 46.9248 17.3067 46.6642 17.4556 46.5897C17.6417 44.3555 17.7162 42.0835 18.4235 40.0726C18.5848 39.7904 18.9819 39.7003 19.2431 39.8864C21.2912 41.45 20.3227 44.3927 21.2167 46.5147C25.1268 46.7009 29.0369 46.887 32.1274 49.0846C33.1703 49.9408 33.4244 51.5762 33.0953 52.5106C32.7667 53.4435 31.6806 54.112 30.6749 54.1854C30.0043 54.1854 28.7385 54.2507 28.8129 53.7392C28.8874 53.2272 31.0909 52.3892 30.4143 51.6905C29.4415 50.6865 24.5743 50.0892 21.5577 49.7169C21.1854 49.6424 20.8439 49.7541 20.8439 50.1636C20.7695 52.9935 20.5461 56.1213 21.0301 58.8406C21.0673 59.0272 21.2906 59.2506 21.4773 59.2868C26.8021 60.1436 32.4252 59.659 36.5958 56.6058C38.5323 55.0427 39.1657 52.8441 38.8301 50.4242C37.1543 43.6843 30.1165 39.6248 24.3445 37.0182C18.7219 34.5606 12.5026 33.2943 5.83708 33.6299C4.7758 33.7076 3.09405 34.074 3.08164 34.4495C3.06923 34.825 4.98676 34.7068 4.75692 35.4174C4.52761 36.1274 2.57879 35.7061 2.00148 35.5291C1.42417 35.3521 1.48028 34.5234 1.62919 34.0022C3.08164 31.4329 7.13468 31.2252 8.96535 31.1351C19.0936 30.8739 28.8879 34.7311 35.3301 39.9976ZM17.0833 49.9775C14.5135 50.0147 11.7952 50.2753 9.41209 51.1688C8.92812 51.3549 8.33192 51.8761 8.70421 52.5096C9.67215 53.8126 11.0566 54.8825 12.3537 55.6373C13.6507 56.391 15.3703 57.3503 16.9344 57.5742C17.3067 55.1533 17.3067 52.7702 17.2694 50.2753C17.12 50.2009 17.2689 50.052 17.0833 49.9775ZM94.0544 46.5886C93.9427 49.828 90.9256 51.8395 90.9256 55.0789C91.0373 55.1906 91.1128 55.3395 91.2606 55.2661C93.6821 52.6218 96.0647 48.8606 99.6025 47.7438C100.535 47.6693 101.377 48.4792 101.726 49.0846C102.955 51.5422 102.658 55.0055 100.944 57.2397C99.1763 59.433 96.1025 61.6338 92.6036 61.2609C91.1516 64.8359 90.1443 68.5971 89.5859 72.5072C89.2881 73.289 88.5813 72.5816 88.1345 72.4327C85.1185 70.0495 87.595 63.7407 87.7995 62.9357C88.004 62.1328 88.8111 60.239 89.4014 58.6533C87.9862 56.1218 88.8796 53.0675 90.0337 50.7215C90.9272 49.1574 92.1574 47.5933 93.6093 46.4019C93.7938 46.4025 93.9427 46.4397 94.0544 46.5886ZM100.051 50.6104C99.6041 50.5359 99.4174 51.1321 99.0457 51.2438C97.3332 53.1802 95.6196 55.1166 94.7628 57.4253C95.918 57.5742 96.8854 56.8297 97.8916 56.4202C99.6041 55.34 100.684 53.5536 100.573 51.5049C100.498 51.1688 100.2 50.9082 100.051 50.6104Z" fill="white"/>
</svg>
