<svg width="104" height="104" viewBox="0 0 104 104" fill="none" xmlns="http://www.w3.org/2000/svg">
<path fill-rule="evenodd" clip-rule="evenodd" d="M99.154 44.9664V47.7643C97.6728 47.2171 96.3541 46.9404 95.2 46.9404C94.5164 46.9404 93.972 47.0643 93.5627 47.3038C93.1533 47.5454 92.9444 47.8427 92.9444 48.1938C92.9444 48.6604 93.4065 49.0754 94.337 49.4471L97.0251 50.7274C99.1983 51.7412 100.276 53.0875 100.276 54.7786C100.276 56.1848 99.7047 57.306 98.5505 58.1361C97.4048 58.9744 95.8625 59.3894 93.9425 59.3894C93.0563 59.3894 92.2609 59.3523 91.554 59.2738C90.8472 59.1995 90.0349 59.0467 89.1339 58.8278V55.8998C90.786 56.447 92.2904 56.7237 93.6449 56.7237C95.2612 56.7237 96.065 56.2653 96.065 55.3402C96.065 54.8798 95.7359 54.5081 95.0671 54.217L92.0815 52.9718C90.9801 52.4845 90.1615 51.894 89.6255 51.194C89.0981 50.4878 88.8301 49.6784 88.8301 48.7534C88.8301 47.4586 89.3871 46.4159 90.4885 45.623C91.5983 44.8363 93.0711 44.4419 94.9025 44.4419C95.4975 44.4419 96.1832 44.4935 96.9428 44.5885C97.7087 44.6897 98.445 44.8136 99.154 44.9664Z" fill="white"/>
<path fill-rule="evenodd" clip-rule="evenodd" d="M14.5969 44.9664V47.7643C13.1157 47.2171 11.7991 46.9404 10.6449 46.9404C9.95921 46.9404 9.41699 47.0643 9.00763 47.3038C8.59833 47.5454 8.38944 47.8427 8.38944 48.1938C8.38944 48.6604 8.85784 49.0754 9.78833 49.4471L12.4764 50.7274C14.6411 51.7412 15.7215 53.0875 15.7215 54.7786C15.7215 56.1848 15.1476 57.306 14.0019 58.1361C12.8477 58.9744 11.3138 59.3894 9.38746 59.3894C8.50127 59.3894 7.7037 59.3523 6.99688 59.2738C6.29005 59.1995 5.48616 59.0467 4.57893 58.8278V55.8998C6.23733 56.447 7.74172 56.7237 9.08783 56.7237C10.704 56.7237 11.5079 56.2653 11.5079 55.3402C11.5079 54.8798 11.1809 54.5081 10.5183 54.217L7.53282 52.9718C6.42297 52.4845 5.60432 51.894 5.07686 51.194C4.54092 50.4878 4.2793 49.6784 4.2793 48.7534C4.2793 47.4586 4.83211 46.4159 5.9398 45.623C7.04122 44.8363 8.51603 44.4419 10.3475 44.4419C10.9488 44.4419 11.6261 44.4935 12.3941 44.5885C13.1537 44.6897 13.89 44.8136 14.5969 44.9664Z" fill="white"/>
<path fill-rule="evenodd" clip-rule="evenodd" d="M17.6777 44.7041H22.0559V59.1272H17.6777V44.7041Z" fill="white"/>
<path fill-rule="evenodd" clip-rule="evenodd" d="M36.1598 44.7041V47.3699H29.6549V50.5683H35.2969V52.9718H29.6549V56.3293H36.2928V59.1272H25.4414V44.7041H36.1598Z" fill="white"/>
<path fill-rule="evenodd" clip-rule="evenodd" d="M56.5987 44.7041V59.1272H52.5116V49.6144L48.2708 59.2593H45.7474L41.6689 49.6144V59.1272H38.7129V44.7041H44.0573L47.7054 53.5335L51.5223 44.7041H56.5987Z" fill="white"/>
<path fill-rule="evenodd" clip-rule="evenodd" d="M70.6988 44.7041V47.3699H64.2295V50.5683H69.8714V52.9718H64.2295V56.3293H70.8318V59.1272H59.9805V44.7041H70.6988Z" fill="white"/>
<path fill-rule="evenodd" clip-rule="evenodd" d="M86.0593 44.7041V59.1272H81.4154L76.2041 49.8766V59.1272H73.25V44.7041H78.0292L83.1056 53.7957V44.7041H86.0593Z" fill="white"/>
</svg>
