<svg width="104" height="104" viewBox="0 0 104 104" fill="none" xmlns="http://www.w3.org/2000/svg">
<g>
<path d="M51.9964 22C35.4329 22 22 35.4329 22 52.0035C22 68.574 35.4329 82 51.9964 82C68.5671 82 82 68.5741 82 52.0035C82 35.4328 68.5671 22 51.9964 22ZM51.9964 78.8552C37.169 78.8552 25.1519 66.831 25.1519 52.0035C25.1519 37.176 37.169 25.1519 51.9964 25.1519C66.831 25.1519 78.8481 37.1761 78.8481 52.0035C78.8481 66.8308 66.831 78.8552 51.9964 78.8552Z" fill="white"/>
<path fill-rule="evenodd" clip-rule="evenodd" d="M78.8485 52.0035C78.8485 66.831 66.8315 78.8552 51.9969 78.8552C37.1694 78.8552 25.1523 66.831 25.1523 52.0035C25.1523 37.176 37.1694 25.1519 51.9969 25.1519C66.8315 25.1519 78.8485 37.1761 78.8485 52.0035ZM28.1428 52.2639V42.6714C28.1428 41.5166 28.8263 40.9156 29.8044 40.9156C30.7825 40.9156 31.466 41.5166 31.466 42.6714V43.461H31.5367C32.067 41.9408 33.4222 40.9391 35.1427 40.9391C36.9693 40.9391 38.242 41.8819 38.6663 43.5317H38.737C39.3026 41.9408 40.811 40.9391 42.6612 40.9391C45.1359 40.9391 46.7975 42.6361 46.7975 45.1815V52.2639C46.7975 53.4306 46.0904 54.0551 45.0652 54.0551C44.0517 54.0551 43.3565 53.4306 43.3565 52.2639V46.0418C43.3565 44.5805 42.6258 43.7792 41.2942 43.7792C39.9861 43.7792 39.1259 44.7337 39.1259 46.136V52.2639C39.1259 53.4306 38.4895 54.0551 37.4643 54.0551C36.4508 54.0551 35.8145 53.4306 35.8145 52.2639V45.9357C35.8145 44.5805 35.0485 43.7792 33.7758 43.7792C32.4677 43.7792 31.5839 44.7691 31.5839 46.1832V52.2639C31.5839 53.4306 30.8768 54.0551 29.8634 54.0551C28.8381 54.0551 28.1428 53.4306 28.1428 52.2639ZM54.0694 40.9038C50.3338 40.9038 47.9651 43.4846 47.9651 47.5502C47.9651 51.6393 50.2867 54.0787 54.2344 54.0787C56.6738 54.0787 58.63 53.1595 59.4667 51.604C59.6199 51.3212 59.7024 51.0383 59.7024 50.7673C59.7024 49.9777 59.1014 49.5064 58.359 49.5064C57.9111 49.5064 57.6047 49.636 57.2394 50.0131C56.3085 51.109 55.4836 51.5333 54.2226 51.5333C52.4785 51.5333 51.3473 50.3077 51.3473 48.434V48.2808H58.5593C59.5138 48.2808 60.0559 47.7387 60.0559 46.7842C60.0559 43.3549 57.6519 40.9038 54.0694 40.9038ZM54.1048 43.4492C55.6132 43.4492 56.6738 44.5216 56.7445 46.1714H51.3826C51.5004 44.5569 52.5964 43.4492 54.1048 43.4492ZM61.2903 52.2639V42.6479C61.2903 41.5519 61.962 40.9156 62.9519 40.9156C63.9182 40.9156 64.5781 41.5519 64.5781 42.6479V43.4728H64.6488C64.9788 41.9055 66.0158 40.9745 67.2768 40.9745C67.7364 40.9745 68.1017 41.0806 68.3491 41.2927C68.6791 41.5519 68.8441 41.9762 68.8441 42.5654C68.8441 43.1075 68.6791 43.5199 68.3491 43.8027C68.0192 44.0856 67.5242 44.2388 66.8525 44.2505C65.2852 44.2741 64.7313 45.1579 64.7313 46.6546V52.2639C64.7313 53.407 64.0596 54.0551 63.0108 54.0551C61.9738 54.0551 61.2903 53.407 61.2903 52.2639ZM71.2727 36.0486C70.2356 36.0486 69.4343 36.8264 69.4343 37.8281C69.4343 38.8179 70.2356 39.6075 71.2727 39.6075C72.3097 39.6075 73.111 38.818 73.111 37.8281C73.111 36.8264 72.3097 36.0486 71.2727 36.0486ZM69.5521 42.7186V52.2639C69.5521 53.3834 70.2003 54.0551 71.2727 54.0551C72.3333 54.0551 72.9932 53.3834 72.9932 52.2639V42.7186C72.9932 41.5991 72.3333 40.9156 71.2727 40.9156C70.2003 40.9156 69.5521 41.5991 69.5521 42.7186ZM48.9108 70.9584C48.7223 70.6402 48.6516 70.322 48.6516 70.0038C48.6516 69.285 49.1937 68.7429 50.0539 68.7429C50.5017 68.7429 50.8553 68.8843 51.2441 69.2378C52.1751 70.1217 53.0707 70.6048 54.2138 70.6166C56.0993 70.6284 57.207 69.5914 57.207 68.0123V65.9971H57.1363C56.5471 67.3523 55.0741 68.2597 53.2475 68.2597C50.1011 68.2597 48.1213 65.8557 48.1213 62.0022C48.1213 58.0427 50.0539 55.6976 53.3064 55.6976C55.1212 55.6976 56.5 56.6521 57.1599 58.0781H57.2306V57.3828C57.2306 56.2161 57.973 55.6387 58.9629 55.6387C59.9528 55.6387 60.6716 56.2161 60.6716 57.3828V68.0358C60.6716 71.3237 58.2912 73.3034 54.2256 73.2799C51.6448 73.2681 49.7239 72.29 48.9108 70.9584ZM57.2424 62.0494C57.2424 59.775 56.1346 58.3138 54.4141 58.3138C52.7172 58.3138 51.6448 59.7514 51.6448 62.0376C51.6448 64.3473 52.7054 65.7025 54.4141 65.7025C56.1347 65.7025 57.2424 64.3356 57.2424 62.0494ZM68.2019 55.6269C64.4191 55.6269 61.9443 58.1134 61.9443 62.2026C61.9443 66.3507 64.3837 68.8018 68.2019 68.8018C72.02 68.8018 74.4594 66.3625 74.4594 62.2026C74.4594 58.1016 71.9846 55.6269 68.2019 55.6269ZM68.2018 58.2548C69.8752 58.2548 70.9594 59.7043 70.9594 62.2144C70.9594 64.748 69.887 66.1739 68.2018 66.1739C66.5049 66.1739 65.4325 64.748 65.4325 62.2144C65.4325 59.7043 66.5285 58.2548 68.2018 58.2548Z" fill="white"/>
</g>
<defs>
</defs>
</svg>
