<svg width="104" height="104" viewBox="0 0 104 104" fill="none" xmlns="http://www.w3.org/2000/svg">
<path d="M27.3932 57.8477L25.1873 60.0537L18.4846 53.2855L22.7759 48.952L21.6281 47.8042H12.3323L11.1659 48.9706L15.4387 53.2855L8.73602 60.0537L6.53065 57.8477L5 59.3784L8.74344 63.1218L16.9619 54.8235L25.1798 63.1218L28.9233 59.3784L27.3932 57.8477ZM15.2006 49.9688H18.7227L16.9619 51.7474L15.2006 49.9688Z" fill="white"/>
<path d="M8.20667 45.429C9.42969 45.429 10.4211 44.4375 10.4211 43.2145C10.4211 41.9915 9.42969 41 8.20667 41C6.98364 41 5.99219 41.9915 5.99219 43.2145C5.99219 44.4375 6.98364 45.429 8.20667 45.429Z" fill="white"/>
<path d="M25.5504 45.429C26.7734 45.429 27.7649 44.4375 27.7649 43.2145C27.7649 41.9915 26.7734 41 25.5504 41C24.3274 41 23.3359 41.9915 23.3359 43.2145C23.3359 44.4375 24.3274 45.429 25.5504 45.429Z" fill="white"/>
<path d="M36.4121 58.5894V45.4287H38.7078V58.5894H36.4121Z" fill="white"/>
<path d="M50.031 54.77H42.8668C43.1241 56.0564 44.1136 56.7491 45.499 56.7491C46.4885 56.7491 47.4583 56.3137 47.9926 55.5616L49.5363 56.7293C48.6853 58.075 47.0426 58.8271 45.3605 58.8271C42.6095 58.8271 40.5117 56.848 40.5117 53.9586C40.5117 51.0098 42.7085 49.1099 45.3605 49.1099C47.9926 49.1099 50.0706 50.99 50.0706 53.8794C50.0706 54.1367 50.0509 54.4336 50.031 54.77ZM47.7947 53.167C47.6561 51.9004 46.6666 51.1483 45.3802 51.1483C44.1532 51.1483 43.1439 51.7618 42.8668 53.167H47.7947Z" fill="white"/>
<path d="M51.293 53.9586C51.293 51.0295 53.569 49.1099 56.2011 49.1099C58.8332 49.1099 61.1289 51.0295 61.1289 53.9586C61.1289 56.8876 58.8332 58.8271 56.2011 58.8271C53.569 58.8271 51.293 56.8876 51.293 53.9586ZM58.8135 53.9586C58.8135 52.3753 57.626 51.2473 56.2011 51.2473C54.7762 51.2473 53.6085 52.3753 53.6085 53.9586C53.6085 55.5814 54.7762 56.6897 56.2011 56.6897C57.626 56.6897 58.8135 55.5814 58.8135 53.9586Z" fill="white"/>
<path d="M72.839 53.9784C72.839 56.9272 70.7412 58.8271 68.3069 58.8271C67.1393 58.8271 65.8529 58.3521 65.2196 57.3626V63.1019H62.9238V49.3474H65.2196V50.5744C65.8529 49.5848 67.1788 49.1099 68.2871 49.1099C70.7214 49.1099 72.839 51.0098 72.839 53.9784ZM70.5433 53.9784C70.5433 52.4545 69.3558 51.2473 67.9309 51.2473C66.5258 51.2473 65.2592 52.3555 65.2592 53.9784C65.2592 55.621 66.6049 56.6897 67.9309 56.6897C69.3558 56.6897 70.5433 55.522 70.5433 53.9784Z" fill="white"/>
<path d="M74.0977 53.9586C74.0977 51.0295 76.3736 49.1099 79.0058 49.1099C81.6379 49.1099 83.9336 51.0295 83.9336 53.9586C83.9336 56.8876 81.6379 58.8271 79.0058 58.8271C76.3736 58.8271 74.0977 56.8876 74.0977 53.9586ZM81.6182 53.9586C81.6182 52.3753 80.4307 51.2473 79.0058 51.2473C77.5809 51.2473 76.4132 52.3753 76.4132 53.9586C76.4132 55.5814 77.5809 56.6897 79.0058 56.6897C80.4307 56.6897 81.6182 55.5814 81.6182 53.9586Z" fill="white"/>
<path d="M85.748 58.5894V45.4287H88.0438V58.5894H85.748Z" fill="white"/>
<path d="M96.5271 49.3472H99.0009L93.2617 63.1017H90.8472L92.9252 57.9363L89.2441 49.3472H91.7576L94.1523 55.2052L96.5271 49.3472Z" fill="white"/>
</svg>
