<svg width="104" height="104" viewBox="0 0 104 104" fill="none" xmlns="http://www.w3.org/2000/svg">
<path d="M6.40087 41.8282C6.40087 40.7881 6.86851 40.2678 7.9127 40.2678H17.5357V42.4299C17.5357 43.4699 17.013 43.9625 15.9668 43.9625H10.7996V47.1103H16.574V50.6681H10.7996V54.089H17.6732V56.251C17.6732 57.2897 17.1511 57.7843 16.1069 57.7843H7.91253C6.86832 57.7843 6.4007 57.2639 6.4007 56.2232L6.40087 41.8282ZM19.4622 41.8282C19.4622 40.7881 19.9298 40.2678 20.974 40.2678H26.6925C30.706 40.2678 33.0162 42.1019 33.0162 45.5506C33.0162 47.9315 32.1082 49.4633 29.9361 50.3396L33.3736 57.0168C33.4845 57.264 33.62 57.51 33.62 57.7844H29.8259C29.0281 57.7844 28.6993 57.7844 28.314 56.9897L25.2353 50.6682H23.8603V57.7844H19.4616L19.4622 41.8282ZM23.8616 43.9631V47.111H26.3631C27.6272 47.111 28.6176 46.9463 28.6176 45.5512C28.6176 44.1826 27.6272 43.9631 26.3631 43.9631L23.8616 43.9631ZM40.2229 40.1309C43.881 40.1309 45.7779 40.5421 45.7779 42.238V43.963H40.7727C39.4263 43.963 39.041 44.3181 39.041 45.0309C39.041 47.1367 46.6838 46.7003 46.6838 52.612C46.6838 55.4306 45.0617 57.9194 40.1117 57.9194C36.8681 57.9194 34.3113 57.3997 34.3113 55.8122V54.0885H40.2211C41.432 54.0885 42.0086 53.7051 42.0086 52.8568C42.0086 50.5585 34.3929 50.9962 34.3929 44.9213C34.3936 42.2384 36.1811 40.1311 40.2225 40.1311L40.2229 40.1309ZM58.7847 40.2684V42.4847C58.7847 43.4976 58.2619 43.963 57.245 43.963H55.0722V57.7842H50.6735V43.963H46.9624V41.7461C46.9624 40.7338 47.4851 40.2684 48.5008 40.2684L58.7847 40.2684ZM60.1604 41.8281C60.1604 40.7881 60.628 40.2677 61.6722 40.2677H71.2953V42.4298C71.2953 43.4698 70.7718 43.9624 69.7283 43.9624H64.5596V47.1103H70.334V50.668H64.5596V54.0889H71.4328V56.251C71.4328 57.2897 70.9107 57.7842 69.8665 57.7842H61.6721C60.6279 57.7842 60.1603 57.2639 60.1603 56.2239L60.1604 41.8281ZM6.40039 62.1707C6.40039 61.7462 6.55118 61.5141 6.96434 61.5141H9.27329C11.1571 61.5141 12.1614 62.2943 12.1614 63.8276C12.1614 64.7579 11.735 65.4429 10.8409 65.7569C11.9409 66.0584 12.4776 66.7844 12.4776 67.8793C12.4776 69.4536 11.4733 70.2742 9.59021 70.2742H6.96437C6.55121 70.2735 6.40041 70.0428 6.40041 69.617L6.40039 62.1707ZM9.28735 65.2366C10.21 65.2366 10.8284 64.9496 10.8284 63.9499C10.8284 62.937 10.1542 62.6494 9.17841 62.6494H7.69248V65.2366L9.28735 65.2366ZM9.49393 69.1381C10.4697 69.1381 11.1439 68.8241 11.1439 67.743C11.1439 66.6885 10.4697 66.3466 9.49393 66.3466H7.69247V69.1388H9.49393V69.1381ZM17.8123 70.2734C17.3733 70.2734 17.2079 70.0413 17.2079 69.6995V69.4806C16.6446 70.1094 15.8887 70.3435 15.2829 70.3435C14.0453 70.3435 13.2761 69.5897 13.2761 68.4406C13.2761 66.7156 15.0909 66.2779 17.2085 66.1814V65.538C17.2085 64.6071 16.5762 64.3466 15.7372 64.3466H13.7564V63.9902C13.7564 63.3886 14.4718 63.3614 15.9159 63.3614C17.4975 63.3614 18.4321 64.0451 18.4321 65.4832V70.2726L17.8123 70.2734ZM17.2079 66.9621C15.324 67.0031 14.5669 67.4144 14.5669 68.2891C14.5669 69.0429 15.1043 69.3159 15.8044 69.3159C16.3272 69.3159 16.8506 69.0832 17.2073 68.7546V66.9621H17.2079ZM19.9566 70.2734V63.4302H20.5757C21.0161 63.4302 21.1947 63.6636 21.1947 63.9915V64.2249C21.7587 63.5948 22.4728 63.3627 23.1204 63.3627C24.4529 63.3627 25.1138 64.1846 25.1138 65.4567V70.2741H23.8889V65.5124C23.8889 64.7037 23.422 64.3619 22.6375 64.3619C22.1147 64.3619 21.5793 64.6079 21.1941 64.9358V70.2743H19.9565L19.9566 70.2734ZM27.8631 66.4418L30.4072 63.7039C30.5725 63.5122 30.6689 63.4295 30.9292 63.4295H31.9894C31.9894 63.5261 31.9475 63.6213 31.8791 63.7039L29.1011 66.6198L31.8923 70.0003C31.9754 70.0823 31.9893 70.1782 31.9893 70.2727H30.8614C30.5459 70.2727 30.4489 70.1359 30.2569 69.8899L27.863 66.974V70.2719H26.6261V61.8836C26.6261 61.4723 26.7762 61.2396 27.1901 61.2396H27.863L27.8631 66.4418Z" fill="white"/>
<path d="M84.5661 38.269C83.9317 37.6263 83.6129 36.8508 83.6129 35.9436C83.6129 35.0557 83.9311 34.2788 84.5561 33.6368C85.1911 32.9875 85.959 32.6562 86.8505 32.6562C87.724 32.6562 88.4918 32.9809 89.1269 33.6269C89.7645 34.2709 90.0887 35.0556 90.0887 35.9436C90.0887 36.8508 89.7705 37.6257 89.1342 38.269C88.4965 38.9156 87.7226 39.2389 86.8498 39.2389C85.9591 39.2389 85.1911 38.9156 84.5661 38.269ZM97.5993 45.692V43.6933C97.5993 41.8036 96.0595 40.2671 94.1599 40.2671H79.5383C77.6386 40.2671 76.0996 41.8044 76.0996 43.6933V51.2221H92.4102V52.362H76.0996V54.3587C76.0996 56.2497 77.6367 57.7844 79.5383 57.7844H94.1599C96.0589 57.7844 97.5993 56.2504 97.5993 54.3587V46.8318H81.2899V45.6919L97.5993 45.692Z" fill="white"/>
</svg>
